<svg width="128" height="248" viewBox="0 0 128 248" fill="none" xmlns="http://www.w3.org/2000/svg">
<circle cx="83.4221" cy="22.9552" r="2.7994" fill="#EEC5CD"/>
<circle cx="83.4221" cy="103.578" r="2.7994" fill="#EEC5CD"/>
<circle cx="83.4221" cy="184.201" r="2.7994" fill="#EEC5CD"/>
<circle cx="83.4221" cy="224.512" r="2.7994" fill="#EEC5CD"/>
<circle cx="83.4221" cy="204.356" r="2.7994" fill="#EEC5CD"/>
<circle cx="83.4221" cy="244.668" r="2.7994" fill="#EEC5CD"/>
<circle cx="83.4221" cy="63.2664" r="2.7994" fill="#EEC5CD"/>
<circle cx="83.4221" cy="143.889" r="2.7994" fill="#EEC5CD"/>
<circle cx="83.4221" cy="2.7994" r="2.7994" fill="#EEC5CD"/>
<circle cx="83.4221" cy="83.4222" r="2.7994" fill="#EEC5CD"/>
<circle cx="83.4221" cy="164.045" r="2.7994" fill="#EEC5CD"/>
<circle cx="83.4221" cy="43.1107" r="2.7994" fill="#EEC5CD"/>
<circle cx="83.4221" cy="123.733" r="2.7994" fill="#EEC5CD"/>
<circle cx="2.7994" cy="22.9552" r="2.7994" fill="#EEC5CD"/>
<circle cx="2.7994" cy="103.578" r="2.7994" fill="#EEC5CD"/>
<circle cx="2.7994" cy="184.201" r="2.7994" fill="#EEC5CD"/>
<circle cx="2.7994" cy="224.512" r="2.7994" fill="#EEC5CD"/>
<circle cx="2.7994" cy="204.356" r="2.7994" fill="#EEC5CD"/>
<circle cx="2.7994" cy="244.668" r="2.7994" fill="#EEC5CD"/>
<circle cx="2.7994" cy="63.2664" r="2.7994" fill="#EEC5CD"/>
<circle cx="2.7994" cy="143.889" r="2.7994" fill="#EEC5CD"/>
<circle cx="2.7994" cy="2.7994" r="2.7994" fill="#EEC5CD"/>
<circle cx="2.7994" cy="83.4222" r="2.7994" fill="#EEC5CD"/>
<circle cx="2.7994" cy="164.045" r="2.7994" fill="#EEC5CD"/>
<circle cx="2.7994" cy="43.1107" r="2.7994" fill="#EEC5CD"/>
<circle cx="2.7994" cy="123.733" r="2.7994" fill="#EEC5CD"/>
<circle cx="123.734" cy="22.9552" r="2.7994" fill="#EEC5CD"/>
<circle cx="123.734" cy="103.578" r="2.7994" fill="#EEC5CD"/>
<circle cx="123.734" cy="184.201" r="2.7994" fill="#EEC5CD"/>
<circle cx="123.734" cy="224.512" r="2.7994" fill="#EEC5CD"/>
<circle cx="123.734" cy="204.356" r="2.7994" fill="#EEC5CD"/>
<circle cx="123.734" cy="244.668" r="2.7994" fill="#EEC5CD"/>
<circle cx="123.734" cy="63.2664" r="2.7994" fill="#EEC5CD"/>
<circle cx="123.734" cy="143.889" r="2.7994" fill="#EEC5CD"/>
<circle cx="123.734" cy="2.7994" r="2.7994" fill="#EEC5CD"/>
<circle cx="123.734" cy="83.4222" r="2.7994" fill="#EEC5CD"/>
<circle cx="123.734" cy="164.045" r="2.7994" fill="#EEC5CD"/>
<circle cx="123.734" cy="43.1107" r="2.7994" fill="#EEC5CD"/>
<circle cx="123.734" cy="123.733" r="2.7994" fill="#EEC5CD"/>
<circle cx="43.1108" cy="22.9552" r="2.7994" fill="#EEC5CD"/>
<circle cx="43.1108" cy="103.578" r="2.7994" fill="#EEC5CD"/>
<circle cx="43.1108" cy="184.201" r="2.7994" fill="#EEC5CD"/>
<circle cx="43.1108" cy="224.512" r="2.7994" fill="#EEC5CD"/>
<circle cx="43.1108" cy="204.356" r="2.7994" fill="#EEC5CD"/>
<circle cx="43.1108" cy="244.668" r="2.7994" fill="#EEC5CD"/>
<circle cx="43.1108" cy="63.2664" r="2.7994" fill="#EEC5CD"/>
<circle cx="43.1108" cy="143.889" r="2.7994" fill="#EEC5CD"/>
<circle cx="43.1108" cy="2.7994" r="2.7994" fill="#EEC5CD"/>
<circle cx="43.1108" cy="83.4222" r="2.7994" fill="#EEC5CD"/>
<circle cx="43.1108" cy="164.045" r="2.7994" fill="#EEC5CD"/>
<circle cx="43.1108" cy="43.1107" r="2.7994" fill="#EEC5CD"/>
<circle cx="43.1108" cy="123.733" r="2.7994" fill="#EEC5CD"/>
<circle cx="103.578" cy="22.9552" r="2.7994" fill="#EEC5CD"/>
<circle cx="103.578" cy="103.578" r="2.7994" fill="#EEC5CD"/>
<circle cx="103.578" cy="184.201" r="2.7994" fill="#EEC5CD"/>
<circle cx="103.578" cy="224.512" r="2.7994" fill="#EEC5CD"/>
<circle cx="103.578" cy="204.356" r="2.7994" fill="#EEC5CD"/>
<circle cx="103.578" cy="244.668" r="2.7994" fill="#EEC5CD"/>
<circle cx="103.578" cy="63.2664" r="2.7994" fill="#EEC5CD"/>
<circle cx="103.578" cy="143.889" r="2.7994" fill="#EEC5CD"/>
<circle cx="103.578" cy="2.7994" r="2.7994" fill="#EEC5CD"/>
<circle cx="103.578" cy="83.4222" r="2.7994" fill="#EEC5CD"/>
<circle cx="103.578" cy="164.045" r="2.7994" fill="#EEC5CD"/>
<circle cx="103.578" cy="43.1107" r="2.7994" fill="#EEC5CD"/>
<circle cx="103.578" cy="123.733" r="2.7994" fill="#EEC5CD"/>
<circle cx="22.9551" cy="22.9552" r="2.7994" fill="#EEC5CD"/>
<circle cx="22.9551" cy="103.578" r="2.7994" fill="#EEC5CD"/>
<circle cx="22.9551" cy="184.201" r="2.7994" fill="#EEC5CD"/>
<circle cx="22.9551" cy="224.512" r="2.7994" fill="#EEC5CD"/>
<circle cx="22.9551" cy="204.356" r="2.7994" fill="#EEC5CD"/>
<circle cx="22.9551" cy="244.668" r="2.7994" fill="#EEC5CD"/>
<circle cx="22.9551" cy="63.2664" r="2.7994" fill="#EEC5CD"/>
<circle cx="22.9551" cy="143.889" r="2.7994" fill="#EEC5CD"/>
<circle cx="22.9551" cy="2.7994" r="2.7994" fill="#EEC5CD"/>
<circle cx="22.9551" cy="83.4222" r="2.7994" fill="#EEC5CD"/>
<circle cx="22.9551" cy="164.045" r="2.7994" fill="#EEC5CD"/>
<circle cx="22.9551" cy="43.1107" r="2.7994" fill="#EEC5CD"/>
<circle cx="22.9551" cy="123.733" r="2.7994" fill="#EEC5CD"/>
<circle cx="63.2664" cy="22.9552" r="2.7994" fill="#EEC5CD"/>
<circle cx="63.2664" cy="103.578" r="2.7994" fill="#EEC5CD"/>
<circle cx="63.2664" cy="184.201" r="2.7994" fill="#EEC5CD"/>
<circle cx="63.2664" cy="224.512" r="2.7994" fill="#EEC5CD"/>
<circle cx="63.2664" cy="204.356" r="2.7994" fill="#EEC5CD"/>
<circle cx="63.2664" cy="244.668" r="2.7994" fill="#EEC5CD"/>
<circle cx="63.2664" cy="63.2664" r="2.7994" fill="#EEC5CD"/>
<circle cx="63.2664" cy="143.889" r="2.7994" fill="#EEC5CD"/>
<circle cx="63.2664" cy="2.7994" r="2.7994" fill="#EEC5CD"/>
<circle cx="63.2664" cy="83.4222" r="2.7994" fill="#EEC5CD"/>
<circle cx="63.2664" cy="164.045" r="2.7994" fill="#EEC5CD"/>
<circle cx="63.2664" cy="43.1107" r="2.7994" fill="#EEC5CD"/>
<circle cx="63.2664" cy="123.733" r="2.7994" fill="#EEC5CD"/>
</svg>
