<svg width="25" height="15" viewBox="0 0 25 15" fill="none" xmlns="http://www.w3.org/2000/svg">
<path d="M12.3589 14.9568C12.2743 14.9568 12.1953 14.9347 12.1219 14.896L11.3713 14.4599C11.2585 14.3991 11.3149 14.3771 11.3488 14.366C11.5011 14.3163 11.5294 14.3053 11.6874 14.2169C11.7043 14.2059 11.7269 14.2114 11.7438 14.2225L12.3194 14.5592C12.342 14.5703 12.3702 14.5703 12.3871 14.5592L14.6388 13.2839C14.6614 13.2728 14.6727 13.2507 14.6727 13.2231V10.6779C14.6727 10.6503 14.6614 10.6282 14.6388 10.6172L12.3871 9.3473C12.3646 9.33626 12.3363 9.33626 12.3194 9.3473L10.0677 10.6172C10.0452 10.6282 10.0339 10.6558 10.0339 10.6779V13.2231C10.0339 13.2452 10.0452 13.2728 10.0677 13.2839L10.6828 13.6317C11.0158 13.7973 11.2246 13.6041 11.2246 13.4109V10.8987C11.2246 10.8656 11.2528 10.8325 11.2923 10.8325H11.5801C11.614 10.8325 11.6479 10.8601 11.6479 10.8987V13.4109C11.6479 13.847 11.4052 14.101 10.9819 14.101C10.8521 14.101 10.7506 14.101 10.4628 13.963L9.87021 13.6317C9.72348 13.5489 9.63319 13.3943 9.63319 13.2287V10.6834C9.63319 10.5178 9.72348 10.3632 9.87021 10.2804L12.1219 9.00499C12.263 8.9277 12.4549 8.9277 12.5959 9.00499L14.8476 10.2804C14.9944 10.3632 15.0847 10.5178 15.0847 10.6834V13.2287C15.0847 13.3943 14.9944 13.5489 14.8476 13.6317L12.5959 14.9071C12.5226 14.9402 12.4379 14.9568 12.3589 14.9568ZM13.0531 13.2066C12.0655 13.2066 11.8623 12.7649 11.8623 12.3894C11.8623 12.3563 11.8905 12.3232 11.93 12.3232H12.2235C12.2573 12.3232 12.2856 12.3453 12.2856 12.3784C12.3307 12.671 12.4605 12.8146 13.0587 12.8146C13.5327 12.8146 13.7359 12.7097 13.7359 12.4612C13.7359 12.3177 13.6795 12.2128 12.9402 12.141C12.3251 12.0803 11.9413 11.9478 11.9413 11.4674C11.9413 11.0202 12.3251 10.7552 12.9684 10.7552C13.6908 10.7552 14.0463 10.9981 14.0914 11.5281C14.0914 11.5447 14.0858 11.5613 14.0745 11.5778C14.0632 11.5889 14.0463 11.5999 14.0294 11.5999H13.7359C13.7077 11.5999 13.6795 11.5778 13.6738 11.5502C13.6061 11.2466 13.4312 11.1472 12.9684 11.1472C12.4492 11.1472 12.3871 11.3239 12.3871 11.4564C12.3871 11.6165 12.4605 11.6662 13.1603 11.7545C13.8544 11.8429 14.1817 11.9698 14.1817 12.4447C14.1761 12.9305 13.7698 13.2066 13.0531 13.2066Z" fill="white"/>
<path d="M5.37247 5.00202C5.37247 4.90264 5.31603 4.80878 5.22574 4.75909L2.83296 3.41194C2.79346 3.38985 2.74831 3.37881 2.70317 3.37329H2.68059C2.63544 3.37329 2.5903 3.38985 2.55079 3.41194L0.158018 4.75909C0.0677249 4.80878 0.0112915 4.90264 0.0112915 5.00202L0.0169348 8.62388C0.0169348 8.67357 0.0451515 8.72326 0.0902983 8.74535C0.135445 8.77295 0.191878 8.77295 0.231382 8.74535L1.6535 7.95031C1.7438 7.90062 1.80023 7.80676 1.80023 7.70738V6.01239C1.80023 5.91301 1.85666 5.81915 1.94696 5.76946L2.55079 5.42715C2.59594 5.39954 2.64673 5.3885 2.69752 5.3885C2.74831 5.3885 2.7991 5.39954 2.83861 5.42715L3.44244 5.76946C3.53274 5.81915 3.58917 5.91301 3.58917 6.01239V7.70738C3.58917 7.80676 3.6456 7.90062 3.7359 7.95031L5.15802 8.74535C5.20317 8.77295 5.2596 8.77295 5.30475 8.74535C5.34989 8.72326 5.37811 8.67357 5.37811 8.62388L5.37247 5.00202Z" fill="white"/>
<path d="M16.8736 0.0165634C16.8284 -0.00552113 16.772 -0.00552113 16.7325 0.0165634C16.6874 0.044169 16.6591 0.0883381 16.6591 0.138028V3.72676C16.6591 3.75989 16.6422 3.79302 16.6083 3.8151C16.5745 3.83166 16.5406 3.83166 16.5068 3.8151L15.9086 3.47831C15.8183 3.42862 15.7111 3.42862 15.6208 3.47831L13.228 4.83099C13.1377 4.88068 13.0813 4.97454 13.0813 5.07392V7.77375C13.0813 7.87313 13.1377 7.96699 13.228 8.01668L15.6208 9.36936C15.7111 9.41905 15.8183 9.41905 15.9086 9.36936L18.3014 8.01668C18.3916 7.96699 18.4481 7.87313 18.4481 7.77375V1.04349C18.4481 0.938592 18.3916 0.844733 18.3014 0.795043L16.8736 0.0165634ZM16.6535 6.88485C16.6535 6.91245 16.6422 6.93454 16.6196 6.94558L15.8014 7.40935C15.7788 7.4204 15.7506 7.4204 15.728 7.40935L14.9097 6.94558C14.8871 6.93454 14.8758 6.90693 14.8758 6.88485V5.9573C14.8758 5.92969 14.8871 5.90761 14.9097 5.89657L15.728 5.43279C15.7506 5.42175 15.7788 5.42175 15.8014 5.43279L16.6196 5.89657C16.6422 5.90761 16.6535 5.93521 16.6535 5.9573V6.88485Z" fill="white"/>
<path d="M24.8364 5.93526C24.9266 5.88557 24.9774 5.79171 24.9774 5.69233V5.03531C24.9774 4.93593 24.921 4.84207 24.8364 4.79238L22.4605 3.44523C22.3702 3.39554 22.263 3.39554 22.1727 3.44523L19.7799 4.7979C19.6896 4.84759 19.6332 4.94145 19.6332 5.04083V7.74067C19.6332 7.84005 19.6896 7.93391 19.7799 7.9836L22.1558 9.30867C22.2461 9.35836 22.3533 9.35836 22.4379 9.30867L23.877 8.52467C23.9221 8.50258 23.9503 8.45289 23.9503 8.4032C23.9503 8.35351 23.9221 8.30382 23.877 8.28174L21.4729 6.92906C21.4278 6.90145 21.3996 6.85729 21.3996 6.80759V5.96286C21.3996 5.91317 21.4278 5.86348 21.4729 5.8414L22.2235 5.42179C22.2686 5.39419 22.3251 5.39419 22.3702 5.42179L23.1208 5.8414C23.1659 5.869 23.1941 5.91317 23.1941 5.96286V6.6254C23.1941 6.67509 23.2224 6.72478 23.2675 6.74686C23.3126 6.77447 23.3691 6.77447 23.4142 6.74686L24.8364 5.93526Z" fill="white"/>
<path d="M22.2799 5.80833C22.2969 5.79729 22.3194 5.79729 22.3364 5.80833L22.7935 6.06782C22.8104 6.07887 22.8217 6.09543 22.8217 6.11751V6.6365C22.8217 6.65858 22.8104 6.67515 22.7935 6.68619L22.3364 6.94568C22.3194 6.95673 22.2969 6.95673 22.2799 6.94568L21.8228 6.68619C21.8059 6.67515 21.7946 6.65858 21.7946 6.6365V6.11751C21.7946 6.09543 21.8059 6.07887 21.8228 6.06782L22.2799 5.80833Z" fill="white"/>
<mask id="mask0" mask-type="alpha" maskUnits="userSpaceOnUse" x="6" y="3" width="6" height="7">
<path d="M9.37359 3.45621C9.28329 3.40652 9.17607 3.40652 9.08578 3.45621L6.70993 4.79785C6.61964 4.84754 6.56885 4.9414 6.56885 5.04078V7.72957C6.56885 7.82895 6.62528 7.92281 6.70993 7.9725L9.08578 9.31413C9.17607 9.36382 9.28329 9.36382 9.37359 9.31413L11.7494 7.9725C11.8397 7.92281 11.8905 7.82895 11.8905 7.72957V5.04078C11.8905 4.9414 11.8341 4.84754 11.7494 4.79785L9.37359 3.45621Z" fill="white"/>
</mask>
<g mask="url(#mask0)">
<path d="M9.37359 3.45621C9.28329 3.40652 9.17607 3.40652 9.08578 3.45621L6.70993 4.79785C6.61964 4.84754 6.56885 4.9414 6.56885 5.04078V7.72957C6.56885 7.82895 6.62528 7.92281 6.70993 7.9725L9.08578 9.31413C9.17607 9.36382 9.28329 9.36382 9.37359 9.31413L11.7494 7.9725C11.8397 7.92281 11.8905 7.82895 11.8905 7.72957V5.04078C11.8905 4.9414 11.8341 4.84754 11.7494 4.79785L9.37359 3.45621Z" fill="white"/>
<path d="M11.7551 4.79795L9.36794 3.45632C9.34537 3.44527 9.31715 3.43423 9.29458 3.42871L6.61964 7.91186C6.64221 7.93947 6.67043 7.96155 6.69864 7.97812L9.08578 9.31975C9.1535 9.3584 9.2325 9.36944 9.30587 9.34736L11.8172 4.85316C11.8002 4.83108 11.7776 4.81451 11.7551 4.79795Z" fill="white"/>
<path fill-rule="evenodd" clip-rule="evenodd" d="M11.7607 7.9724C11.8284 7.93375 11.8792 7.8675 11.9018 7.79573L9.2833 3.42299C9.21558 3.41195 9.14222 3.41747 9.08014 3.45612L6.70994 4.79223L9.26637 9.35268C9.30023 9.34716 9.33974 9.33612 9.3736 9.31956L11.7607 7.9724Z" fill="white"/>
<path fill-rule="evenodd" clip-rule="evenodd" d="M11.7607 7.97248L9.37923 9.31411C9.34537 9.33068 9.31151 9.34172 9.27201 9.34724L9.31716 9.43006L11.9582 7.93383V7.90071L11.8905 7.79028C11.8792 7.86758 11.8284 7.93383 11.7607 7.97248Z" fill="white"/>
<path fill-rule="evenodd" clip-rule="evenodd" d="M11.7607 7.97248L9.37923 9.31411C9.34537 9.33068 9.31151 9.34172 9.27201 9.34724L9.31716 9.43006L11.9582 7.93383V7.90071L11.8905 7.79028C11.8792 7.86758 11.8284 7.93383 11.7607 7.97248Z" fill="white"/>
</g>
</svg>
