<svg width="16" height="17" viewBox="0 0 16 17" fill="none" xmlns="http://www.w3.org/2000/svg">
<path d="M7.96552 0L0 2.8305L1.2069 13.2685L7.96552 17L14.7672 13.2685L16 2.8305L7.96552 0Z" fill="white"/>
<path d="M7.96552 0V1.887V10.472V17L14.7672 13.2685L16 2.8305L7.96552 0Z" fill="white"/>
<path d="M3.68967 4.67505V12.325H12.3104V4.67505H3.68967ZM11.8966 11.8915H4.09484V5.10855H11.9052V11.8915H11.8966Z" fill="#D67513"/>
<path d="M5.18101 9.46891L5.47412 9.76641L7.13791 8.11741L5.44826 6.45142L5.15515 6.74042L6.5517 8.11741L5.18101 9.46891Z" fill="#D67513"/>
<path d="M9.72414 9.96191H7.13794V10.3019H9.72414V9.96191Z" fill="#D67513"/>
</svg>
