<svg width="15" height="15" viewBox="0 0 15 15" fill="none" xmlns="http://www.w3.org/2000/svg">
<g clip-path="url(#clip0)">
<path d="M0 1H15V16H0V1Z" fill="white"/>
<path d="M3.94405 13.5351L5.09196 12.8404C5.31341 13.2331 5.51486 13.5653 5.99808 13.5653C6.46127 13.5653 6.75329 13.3841 6.75329 12.6793V7.88647H8.16291V12.6993C8.16291 14.1593 7.3071 14.8238 6.05851 14.8238C4.93086 14.8238 4.27629 14.2398 3.94403 13.535" fill="#D67513"/>
<path d="M8.92856 13.384L10.0763 12.7194C10.3785 13.2129 10.7712 13.5753 11.4659 13.5753C12.0499 13.5753 12.4224 13.2833 12.4224 12.8805C12.4224 12.3972 12.0398 12.226 11.3954 11.9442L11.0431 11.793C10.026 11.3602 9.35139 10.8165 9.35139 9.66857C9.35139 8.61133 10.1569 7.80579 11.4156 7.80579C12.3117 7.80579 12.9561 8.11795 13.4192 8.93355L12.3217 9.63833C12.08 9.2054 11.8183 9.03426 11.4156 9.03426C11.0027 9.03426 10.7409 9.29605 10.7409 9.63833C10.7409 10.0612 11.0027 10.2325 11.6068 10.4943L11.9592 10.6453C13.1574 11.1588 13.8321 11.6824 13.8321 12.8604C13.8321 14.1291 12.8352 14.8238 11.4961 14.8238C10.1872 14.8238 9.34134 14.1996 8.92858 13.384" fill="#D67513"/>
</g>
<defs>
<clipPath id="clip0">
<rect width="15" height="15" fill="white"/>
</clipPath>
</defs>
</svg>
