<svg width="438" height="418" viewBox="0 0 438 418" fill="none" xmlns="http://www.w3.org/2000/svg">
<ellipse cx="94.6006" cy="240.468" rx="3.17452" ry="3.02956" fill="#F08315"/>
<ellipse cx="94.6006" cy="327.719" rx="3.17452" ry="3.02956" fill="#F08315"/>
<ellipse cx="94.6006" cy="414.97" rx="3.17452" ry="3.02956" fill="#F08315"/>
<ellipse cx="94.6006" cy="284.093" rx="3.17452" ry="3.02956" fill="#F08315"/>
<ellipse cx="94.6006" cy="371.345" rx="3.17452" ry="3.02956" fill="#F08315"/>
<ellipse cx="94.6006" cy="218.655" rx="3.17452" ry="3.02956" fill="#F08315"/>
<ellipse cx="94.6006" cy="305.906" rx="3.17452" ry="3.02956" fill="#F08315"/>
<ellipse cx="94.6006" cy="393.158" rx="3.17452" ry="3.02956" fill="#F08315"/>
<ellipse cx="94.6006" cy="262.281" rx="3.17452" ry="3.02956" fill="#F08315"/>
<ellipse cx="94.6006" cy="349.532" rx="3.17452" ry="3.02956" fill="#F08315"/>
<ellipse cx="3.17452" cy="240.468" rx="3.17452" ry="3.02956" fill="#F08315"/>
<ellipse cx="3.17452" cy="327.719" rx="3.17452" ry="3.02956" fill="#F08315"/>
<ellipse cx="3.17452" cy="414.97" rx="3.17452" ry="3.02956" fill="#F08315"/>
<ellipse cx="3.17452" cy="284.093" rx="3.17452" ry="3.02956" fill="#F08315"/>
<ellipse cx="3.17452" cy="371.345" rx="3.17452" ry="3.02956" fill="#F08315"/>
<ellipse cx="3.17452" cy="218.655" rx="3.17452" ry="3.02956" fill="#F08315"/>
<ellipse cx="3.17452" cy="305.906" rx="3.17452" ry="3.02956" fill="#F08315"/>
<ellipse cx="3.17452" cy="393.158" rx="3.17452" ry="3.02956" fill="#F08315"/>
<ellipse cx="3.17452" cy="262.281" rx="3.17452" ry="3.02956" fill="#F08315"/>
<ellipse cx="3.17452" cy="349.532" rx="3.17452" ry="3.02956" fill="#F08315"/>
<ellipse cx="140.314" cy="240.468" rx="3.17452" ry="3.02956" fill="#F08315"/>
<ellipse cx="140.314" cy="327.719" rx="3.17452" ry="3.02956" fill="#F08315"/>
<ellipse cx="140.314" cy="414.97" rx="3.17452" ry="3.02956" fill="#F08315"/>
<ellipse cx="140.314" cy="284.093" rx="3.17452" ry="3.02956" fill="#F08315"/>
<ellipse cx="140.314" cy="371.345" rx="3.17452" ry="3.02956" fill="#F08315"/>
<ellipse cx="140.314" cy="218.655" rx="3.17452" ry="3.02956" fill="#F08315"/>
<ellipse cx="140.314" cy="305.906" rx="3.17452" ry="3.02956" fill="#F08315"/>
<ellipse cx="140.314" cy="393.158" rx="3.17452" ry="3.02956" fill="#F08315"/>
<ellipse cx="140.314" cy="262.281" rx="3.17452" ry="3.02956" fill="#F08315"/>
<ellipse cx="140.314" cy="349.532" rx="3.17452" ry="3.02956" fill="#F08315"/>
<ellipse cx="186.027" cy="240.468" rx="3.17452" ry="3.02956" fill="#F08315"/>
<ellipse cx="186.027" cy="327.719" rx="3.17452" ry="3.02956" fill="#F08315"/>
<ellipse cx="186.027" cy="414.97" rx="3.17452" ry="3.02956" fill="#F08315"/>
<ellipse cx="186.027" cy="284.093" rx="3.17452" ry="3.02956" fill="#F08315"/>
<ellipse cx="186.027" cy="371.345" rx="3.17452" ry="3.02956" fill="#F08315"/>
<ellipse cx="186.027" cy="218.655" rx="3.17452" ry="3.02956" fill="#F08315"/>
<ellipse cx="186.027" cy="305.906" rx="3.17452" ry="3.02956" fill="#F08315"/>
<ellipse cx="186.027" cy="393.158" rx="3.17452" ry="3.02956" fill="#F08315"/>
<ellipse cx="186.027" cy="262.281" rx="3.17452" ry="3.02956" fill="#F08315"/>
<ellipse cx="186.027" cy="349.532" rx="3.17452" ry="3.02956" fill="#F08315"/>
<ellipse cx="48.8875" cy="240.468" rx="3.17452" ry="3.02956" fill="#F08315"/>
<ellipse cx="48.8875" cy="327.719" rx="3.17452" ry="3.02956" fill="#F08315"/>
<ellipse cx="48.8875" cy="414.97" rx="3.17452" ry="3.02956" fill="#F08315"/>
<ellipse cx="48.8875" cy="284.093" rx="3.17452" ry="3.02956" fill="#F08315"/>
<ellipse cx="48.8875" cy="371.345" rx="3.17452" ry="3.02956" fill="#F08315"/>
<ellipse cx="48.8875" cy="218.655" rx="3.17452" ry="3.02956" fill="#F08315"/>
<ellipse cx="48.8875" cy="305.906" rx="3.17452" ry="3.02956" fill="#F08315"/>
<ellipse cx="48.8875" cy="393.158" rx="3.17452" ry="3.02956" fill="#F08315"/>
<ellipse cx="48.8875" cy="262.281" rx="3.17452" ry="3.02956" fill="#F08315"/>
<ellipse cx="48.8875" cy="349.532" rx="3.17452" ry="3.02956" fill="#F08315"/>
<ellipse cx="117.457" cy="240.468" rx="3.17452" ry="3.02956" fill="#F08315"/>
<ellipse cx="117.457" cy="327.719" rx="3.17452" ry="3.02956" fill="#F08315"/>
<ellipse cx="117.457" cy="414.97" rx="3.17452" ry="3.02956" fill="#F08315"/>
<ellipse cx="117.457" cy="284.093" rx="3.17452" ry="3.02956" fill="#F08315"/>
<ellipse cx="117.457" cy="371.345" rx="3.17452" ry="3.02956" fill="#F08315"/>
<ellipse cx="117.457" cy="218.655" rx="3.17452" ry="3.02956" fill="#F08315"/>
<ellipse cx="117.457" cy="305.906" rx="3.17452" ry="3.02956" fill="#F08315"/>
<ellipse cx="117.457" cy="393.158" rx="3.17452" ry="3.02956" fill="#F08315"/>
<ellipse cx="117.457" cy="262.281" rx="3.17452" ry="3.02956" fill="#F08315"/>
<ellipse cx="117.457" cy="349.532" rx="3.17452" ry="3.02956" fill="#F08315"/>
<ellipse cx="26.031" cy="240.468" rx="3.17452" ry="3.02956" fill="#F08315"/>
<ellipse cx="26.031" cy="327.719" rx="3.17452" ry="3.02956" fill="#F08315"/>
<ellipse cx="26.031" cy="414.97" rx="3.17452" ry="3.02956" fill="#F08315"/>
<ellipse cx="26.031" cy="284.093" rx="3.17452" ry="3.02956" fill="#F08315"/>
<ellipse cx="26.031" cy="371.345" rx="3.17452" ry="3.02956" fill="#F08315"/>
<ellipse cx="26.031" cy="218.655" rx="3.17452" ry="3.02956" fill="#F08315"/>
<ellipse cx="26.031" cy="305.906" rx="3.17452" ry="3.02956" fill="#F08315"/>
<ellipse cx="26.031" cy="393.158" rx="3.17452" ry="3.02956" fill="#F08315"/>
<ellipse cx="26.031" cy="262.281" rx="3.17452" ry="3.02956" fill="#F08315"/>
<ellipse cx="26.031" cy="349.532" rx="3.17452" ry="3.02956" fill="#F08315"/>
<ellipse cx="163.17" cy="240.468" rx="3.17452" ry="3.02956" fill="#F08315"/>
<ellipse cx="163.17" cy="327.719" rx="3.17452" ry="3.02956" fill="#F08315"/>
<ellipse cx="163.17" cy="414.97" rx="3.17452" ry="3.02956" fill="#F08315"/>
<ellipse cx="163.17" cy="284.093" rx="3.17452" ry="3.02956" fill="#F08315"/>
<ellipse cx="163.17" cy="371.345" rx="3.17452" ry="3.02956" fill="#F08315"/>
<ellipse cx="163.17" cy="218.655" rx="3.17452" ry="3.02956" fill="#F08315"/>
<ellipse cx="163.17" cy="305.906" rx="3.17452" ry="3.02956" fill="#F08315"/>
<ellipse cx="163.17" cy="393.158" rx="3.17452" ry="3.02956" fill="#F08315"/>
<ellipse cx="163.17" cy="262.281" rx="3.17452" ry="3.02956" fill="#F08315"/>
<ellipse cx="163.17" cy="349.532" rx="3.17452" ry="3.02956" fill="#F08315"/>
<ellipse cx="208.883" cy="240.468" rx="3.17452" ry="3.02956" fill="#F08315"/>
<ellipse cx="208.883" cy="327.719" rx="3.17452" ry="3.02956" fill="#F08315"/>
<ellipse cx="208.883" cy="414.97" rx="3.17452" ry="3.02956" fill="#F08315"/>
<ellipse cx="208.883" cy="284.093" rx="3.17452" ry="3.02956" fill="#F08315"/>
<ellipse cx="208.883" cy="371.345" rx="3.17452" ry="3.02956" fill="#F08315"/>
<ellipse cx="208.883" cy="218.655" rx="3.17452" ry="3.02956" fill="#F08315"/>
<ellipse cx="208.883" cy="305.906" rx="3.17452" ry="3.02956" fill="#F08315"/>
<ellipse cx="208.883" cy="393.158" rx="3.17452" ry="3.02956" fill="#F08315"/>
<ellipse cx="208.883" cy="262.281" rx="3.17452" ry="3.02956" fill="#F08315"/>
<ellipse cx="208.883" cy="349.532" rx="3.17452" ry="3.02956" fill="#F08315"/>
<ellipse cx="71.744" cy="240.468" rx="3.17452" ry="3.02956" fill="#F08315"/>
<ellipse cx="71.744" cy="327.719" rx="3.17452" ry="3.02956" fill="#F08315"/>
<ellipse cx="71.744" cy="414.97" rx="3.17452" ry="3.02956" fill="#F08315"/>
<ellipse cx="71.744" cy="284.093" rx="3.17452" ry="3.02956" fill="#F08315"/>
<ellipse cx="71.744" cy="371.345" rx="3.17452" ry="3.02956" fill="#F08315"/>
<ellipse cx="71.744" cy="218.655" rx="3.17452" ry="3.02956" fill="#F08315"/>
<ellipse cx="71.744" cy="305.906" rx="3.17452" ry="3.02956" fill="#F08315"/>
<ellipse cx="71.744" cy="393.158" rx="3.17452" ry="3.02956" fill="#F08315"/>
<ellipse cx="71.744" cy="262.281" rx="3.17452" ry="3.02956" fill="#F08315"/>
<ellipse cx="71.744" cy="349.532" rx="3.17452" ry="3.02956" fill="#F08315"/>
<ellipse cx="94.6006" cy="24.8424" rx="3.17452" ry="3.02956" fill="#F08315"/>
<ellipse cx="94.6006" cy="112.094" rx="3.17452" ry="3.02956" fill="#F08315"/>
<ellipse cx="94.6006" cy="199.345" rx="3.17452" ry="3.02956" fill="#F08315"/>
<ellipse cx="94.6006" cy="68.4681" rx="3.17452" ry="3.02956" fill="#F08315"/>
<ellipse cx="94.6006" cy="155.719" rx="3.17452" ry="3.02956" fill="#F08315"/>
<ellipse cx="94.6006" cy="3.02956" rx="3.17452" ry="3.02956" fill="#F08315"/>
<ellipse cx="94.6006" cy="90.2809" rx="3.17452" ry="3.02956" fill="#F08315"/>
<ellipse cx="94.6006" cy="177.532" rx="3.17452" ry="3.02956" fill="#F08315"/>
<ellipse cx="94.6006" cy="46.6552" rx="3.17452" ry="3.02956" fill="#F08315"/>
<ellipse cx="94.6006" cy="133.907" rx="3.17452" ry="3.02956" fill="#F08315"/>
<ellipse cx="3.17452" cy="24.8424" rx="3.17452" ry="3.02956" fill="#F08315"/>
<ellipse cx="3.17452" cy="112.094" rx="3.17452" ry="3.02956" fill="#F08315"/>
<ellipse cx="3.17452" cy="199.345" rx="3.17452" ry="3.02956" fill="#F08315"/>
<ellipse cx="3.17452" cy="68.4681" rx="3.17452" ry="3.02956" fill="#F08315"/>
<ellipse cx="3.17452" cy="155.719" rx="3.17452" ry="3.02956" fill="#F08315"/>
<ellipse cx="3.17452" cy="3.02956" rx="3.17452" ry="3.02956" fill="#F08315"/>
<ellipse cx="3.17452" cy="90.2809" rx="3.17452" ry="3.02956" fill="#F08315"/>
<ellipse cx="3.17452" cy="177.532" rx="3.17452" ry="3.02956" fill="#F08315"/>
<ellipse cx="3.17452" cy="46.6552" rx="3.17452" ry="3.02956" fill="#F08315"/>
<ellipse cx="3.17452" cy="133.907" rx="3.17452" ry="3.02956" fill="#F08315"/>
<ellipse cx="140.314" cy="24.8424" rx="3.17452" ry="3.02956" fill="#F08315"/>
<ellipse cx="140.314" cy="112.094" rx="3.17452" ry="3.02956" fill="#F08315"/>
<ellipse cx="140.314" cy="199.345" rx="3.17452" ry="3.02956" fill="#F08315"/>
<ellipse cx="140.314" cy="68.4681" rx="3.17452" ry="3.02956" fill="#F08315"/>
<ellipse cx="140.314" cy="155.719" rx="3.17452" ry="3.02956" fill="#F08315"/>
<ellipse cx="140.314" cy="3.02956" rx="3.17452" ry="3.02956" fill="#F08315"/>
<ellipse cx="140.314" cy="90.2809" rx="3.17452" ry="3.02956" fill="#F08315"/>
<ellipse cx="140.314" cy="177.532" rx="3.17452" ry="3.02956" fill="#F08315"/>
<ellipse cx="140.314" cy="46.6552" rx="3.17452" ry="3.02956" fill="#F08315"/>
<ellipse cx="140.314" cy="133.907" rx="3.17452" ry="3.02956" fill="#F08315"/>
<ellipse cx="186.027" cy="24.8424" rx="3.17452" ry="3.02956" fill="#F08315"/>
<ellipse cx="186.027" cy="112.094" rx="3.17452" ry="3.02956" fill="#F08315"/>
<ellipse cx="186.027" cy="199.345" rx="3.17452" ry="3.02956" fill="#F08315"/>
<ellipse cx="186.027" cy="68.4681" rx="3.17452" ry="3.02956" fill="#F08315"/>
<ellipse cx="186.027" cy="155.719" rx="3.17452" ry="3.02956" fill="#F08315"/>
<ellipse cx="186.027" cy="3.02956" rx="3.17452" ry="3.02956" fill="#F08315"/>
<ellipse cx="186.027" cy="90.2809" rx="3.17452" ry="3.02956" fill="#F08315"/>
<ellipse cx="186.027" cy="177.532" rx="3.17452" ry="3.02956" fill="#F08315"/>
<ellipse cx="186.027" cy="46.6552" rx="3.17452" ry="3.02956" fill="#F08315"/>
<ellipse cx="186.027" cy="133.907" rx="3.17452" ry="3.02956" fill="#F08315"/>
<ellipse cx="48.8875" cy="24.8424" rx="3.17452" ry="3.02956" fill="#F08315"/>
<ellipse cx="48.8875" cy="112.094" rx="3.17452" ry="3.02956" fill="#F08315"/>
<ellipse cx="48.8875" cy="199.345" rx="3.17452" ry="3.02956" fill="#F08315"/>
<ellipse cx="48.8875" cy="68.4681" rx="3.17452" ry="3.02956" fill="#F08315"/>
<ellipse cx="48.8875" cy="155.719" rx="3.17452" ry="3.02956" fill="#F08315"/>
<ellipse cx="48.8875" cy="3.02956" rx="3.17452" ry="3.02956" fill="#F08315"/>
<ellipse cx="48.8875" cy="90.2809" rx="3.17452" ry="3.02956" fill="#F08315"/>
<ellipse cx="48.8875" cy="177.532" rx="3.17452" ry="3.02956" fill="#F08315"/>
<ellipse cx="48.8875" cy="46.6552" rx="3.17452" ry="3.02956" fill="#F08315"/>
<ellipse cx="48.8875" cy="133.907" rx="3.17452" ry="3.02956" fill="#F08315"/>
<ellipse cx="117.457" cy="24.8424" rx="3.17452" ry="3.02956" fill="#F08315"/>
<ellipse cx="117.457" cy="112.094" rx="3.17452" ry="3.02956" fill="#F08315"/>
<ellipse cx="117.457" cy="199.345" rx="3.17452" ry="3.02956" fill="#F08315"/>
<ellipse cx="117.457" cy="68.4681" rx="3.17452" ry="3.02956" fill="#F08315"/>
<ellipse cx="117.457" cy="155.719" rx="3.17452" ry="3.02956" fill="#F08315"/>
<ellipse cx="117.457" cy="3.02956" rx="3.17452" ry="3.02956" fill="#F08315"/>
<ellipse cx="117.457" cy="90.2809" rx="3.17452" ry="3.02956" fill="#F08315"/>
<ellipse cx="117.457" cy="177.532" rx="3.17452" ry="3.02956" fill="#F08315"/>
<ellipse cx="117.457" cy="46.6552" rx="3.17452" ry="3.02956" fill="#F08315"/>
<ellipse cx="117.457" cy="133.907" rx="3.17452" ry="3.02956" fill="#F08315"/>
<ellipse cx="26.031" cy="24.8424" rx="3.17452" ry="3.02956" fill="#F08315"/>
<ellipse cx="26.031" cy="112.094" rx="3.17452" ry="3.02956" fill="#F08315"/>
<ellipse cx="26.031" cy="199.345" rx="3.17452" ry="3.02956" fill="#F08315"/>
<ellipse cx="26.031" cy="68.4681" rx="3.17452" ry="3.02956" fill="#F08315"/>
<ellipse cx="26.031" cy="155.719" rx="3.17452" ry="3.02956" fill="#F08315"/>
<ellipse cx="26.031" cy="3.02956" rx="3.17452" ry="3.02956" fill="#F08315"/>
<ellipse cx="26.031" cy="90.2809" rx="3.17452" ry="3.02956" fill="#F08315"/>
<ellipse cx="26.031" cy="177.532" rx="3.17452" ry="3.02956" fill="#F08315"/>
<ellipse cx="26.031" cy="46.6552" rx="3.17452" ry="3.02956" fill="#F08315"/>
<ellipse cx="26.031" cy="133.907" rx="3.17452" ry="3.02956" fill="#F08315"/>
<ellipse cx="163.17" cy="24.8424" rx="3.17452" ry="3.02956" fill="#F08315"/>
<ellipse cx="163.17" cy="112.094" rx="3.17452" ry="3.02956" fill="#F08315"/>
<ellipse cx="163.17" cy="199.345" rx="3.17452" ry="3.02956" fill="#F08315"/>
<ellipse cx="163.17" cy="68.4681" rx="3.17452" ry="3.02956" fill="#F08315"/>
<ellipse cx="163.17" cy="155.719" rx="3.17452" ry="3.02956" fill="#F08315"/>
<ellipse cx="163.17" cy="3.02956" rx="3.17452" ry="3.02956" fill="#F08315"/>
<ellipse cx="163.17" cy="90.2809" rx="3.17452" ry="3.02956" fill="#F08315"/>
<ellipse cx="163.17" cy="177.532" rx="3.17452" ry="3.02956" fill="#F08315"/>
<ellipse cx="163.17" cy="46.6552" rx="3.17452" ry="3.02956" fill="#F08315"/>
<ellipse cx="163.17" cy="133.907" rx="3.17452" ry="3.02956" fill="#F08315"/>
<ellipse cx="208.883" cy="24.8424" rx="3.17452" ry="3.02956" fill="#F08315"/>
<ellipse cx="208.883" cy="112.094" rx="3.17452" ry="3.02956" fill="#F08315"/>
<ellipse cx="208.883" cy="199.345" rx="3.17452" ry="3.02956" fill="#F08315"/>
<ellipse cx="208.883" cy="68.4681" rx="3.17452" ry="3.02956" fill="#F08315"/>
<ellipse cx="208.883" cy="155.719" rx="3.17452" ry="3.02956" fill="#F08315"/>
<ellipse cx="208.883" cy="3.02956" rx="3.17452" ry="3.02956" fill="#F08315"/>
<ellipse cx="208.883" cy="90.2809" rx="3.17452" ry="3.02956" fill="#F08315"/>
<ellipse cx="208.883" cy="177.532" rx="3.17452" ry="3.02956" fill="#F08315"/>
<ellipse cx="208.883" cy="46.6552" rx="3.17452" ry="3.02956" fill="#F08315"/>
<ellipse cx="208.883" cy="133.907" rx="3.17452" ry="3.02956" fill="#F08315"/>
<ellipse cx="71.744" cy="24.8424" rx="3.17452" ry="3.02956" fill="#F08315"/>
<ellipse cx="71.744" cy="112.094" rx="3.17452" ry="3.02956" fill="#F08315"/>
<ellipse cx="71.744" cy="199.345" rx="3.17452" ry="3.02956" fill="#F08315"/>
<ellipse cx="71.744" cy="68.4681" rx="3.17452" ry="3.02956" fill="#F08315"/>
<ellipse cx="71.744" cy="155.719" rx="3.17452" ry="3.02956" fill="#F08315"/>
<ellipse cx="71.744" cy="3.02956" rx="3.17452" ry="3.02956" fill="#F08315"/>
<ellipse cx="71.744" cy="90.2809" rx="3.17452" ry="3.02956" fill="#F08315"/>
<ellipse cx="71.744" cy="177.532" rx="3.17452" ry="3.02956" fill="#F08315"/>
<ellipse cx="71.744" cy="46.6552" rx="3.17452" ry="3.02956" fill="#F08315"/>
<ellipse cx="71.744" cy="133.907" rx="3.17452" ry="3.02956" fill="#F08315"/>
<ellipse cx="320.543" cy="240.468" rx="3.17452" ry="3.02956" fill="#F08315"/>
<ellipse cx="320.543" cy="327.719" rx="3.17452" ry="3.02956" fill="#F08315"/>
<ellipse cx="320.543" cy="414.97" rx="3.17452" ry="3.02956" fill="#F08315"/>
<ellipse cx="320.543" cy="284.093" rx="3.17452" ry="3.02956" fill="#F08315"/>
<ellipse cx="320.543" cy="371.345" rx="3.17452" ry="3.02956" fill="#F08315"/>
<ellipse cx="320.543" cy="218.655" rx="3.17452" ry="3.02956" fill="#F08315"/>
<ellipse cx="320.543" cy="305.906" rx="3.17452" ry="3.02956" fill="#F08315"/>
<ellipse cx="320.543" cy="393.158" rx="3.17452" ry="3.02956" fill="#F08315"/>
<ellipse cx="320.543" cy="262.281" rx="3.17452" ry="3.02956" fill="#F08315"/>
<ellipse cx="320.543" cy="349.532" rx="3.17452" ry="3.02956" fill="#F08315"/>
<ellipse cx="229.117" cy="240.468" rx="3.17452" ry="3.02956" fill="#F08315"/>
<ellipse cx="229.117" cy="327.719" rx="3.17452" ry="3.02956" fill="#F08315"/>
<ellipse cx="229.117" cy="414.97" rx="3.17452" ry="3.02956" fill="#F08315"/>
<ellipse cx="229.117" cy="284.093" rx="3.17452" ry="3.02956" fill="#F08315"/>
<ellipse cx="229.117" cy="371.345" rx="3.17452" ry="3.02956" fill="#F08315"/>
<ellipse cx="229.117" cy="218.655" rx="3.17452" ry="3.02956" fill="#F08315"/>
<ellipse cx="229.117" cy="305.906" rx="3.17452" ry="3.02956" fill="#F08315"/>
<ellipse cx="229.117" cy="393.158" rx="3.17452" ry="3.02956" fill="#F08315"/>
<ellipse cx="229.117" cy="262.281" rx="3.17452" ry="3.02956" fill="#F08315"/>
<ellipse cx="229.117" cy="349.532" rx="3.17452" ry="3.02956" fill="#F08315"/>
<ellipse cx="366.256" cy="240.468" rx="3.17452" ry="3.02956" fill="#F08315"/>
<ellipse cx="366.256" cy="327.719" rx="3.17452" ry="3.02956" fill="#F08315"/>
<ellipse cx="366.256" cy="414.97" rx="3.17452" ry="3.02956" fill="#F08315"/>
<ellipse cx="366.256" cy="284.093" rx="3.17452" ry="3.02956" fill="#F08315"/>
<ellipse cx="366.256" cy="371.345" rx="3.17452" ry="3.02956" fill="#F08315"/>
<ellipse cx="366.256" cy="218.655" rx="3.17452" ry="3.02956" fill="#F08315"/>
<ellipse cx="366.256" cy="305.906" rx="3.17452" ry="3.02956" fill="#F08315"/>
<ellipse cx="366.256" cy="393.158" rx="3.17452" ry="3.02956" fill="#F08315"/>
<ellipse cx="366.256" cy="262.281" rx="3.17452" ry="3.02956" fill="#F08315"/>
<ellipse cx="366.256" cy="349.532" rx="3.17452" ry="3.02956" fill="#F08315"/>
<ellipse cx="411.969" cy="240.468" rx="3.17452" ry="3.02956" fill="#F08315"/>
<ellipse cx="411.969" cy="327.719" rx="3.17452" ry="3.02956" fill="#F08315"/>
<ellipse cx="411.969" cy="414.97" rx="3.17452" ry="3.02956" fill="#F08315"/>
<ellipse cx="411.969" cy="284.093" rx="3.17452" ry="3.02956" fill="#F08315"/>
<ellipse cx="411.969" cy="371.345" rx="3.17452" ry="3.02956" fill="#F08315"/>
<ellipse cx="411.969" cy="218.655" rx="3.17452" ry="3.02956" fill="#F08315"/>
<ellipse cx="411.969" cy="305.906" rx="3.17452" ry="3.02956" fill="#F08315"/>
<ellipse cx="411.969" cy="393.158" rx="3.17452" ry="3.02956" fill="#F08315"/>
<ellipse cx="411.969" cy="262.281" rx="3.17452" ry="3.02956" fill="#F08315"/>
<ellipse cx="411.969" cy="349.532" rx="3.17452" ry="3.02956" fill="#F08315"/>
<ellipse cx="274.83" cy="240.468" rx="3.17452" ry="3.02956" fill="#F08315"/>
<ellipse cx="274.83" cy="327.719" rx="3.17452" ry="3.02956" fill="#F08315"/>
<ellipse cx="274.83" cy="414.97" rx="3.17452" ry="3.02956" fill="#F08315"/>
<ellipse cx="274.83" cy="284.093" rx="3.17452" ry="3.02956" fill="#F08315"/>
<ellipse cx="274.83" cy="371.345" rx="3.17452" ry="3.02956" fill="#F08315"/>
<ellipse cx="274.83" cy="218.655" rx="3.17452" ry="3.02956" fill="#F08315"/>
<ellipse cx="274.83" cy="305.906" rx="3.17452" ry="3.02956" fill="#F08315"/>
<ellipse cx="274.83" cy="393.158" rx="3.17452" ry="3.02956" fill="#F08315"/>
<ellipse cx="274.83" cy="262.281" rx="3.17452" ry="3.02956" fill="#F08315"/>
<ellipse cx="274.83" cy="349.532" rx="3.17452" ry="3.02956" fill="#F08315"/>
<ellipse cx="343.4" cy="240.468" rx="3.17452" ry="3.02956" fill="#F08315"/>
<ellipse cx="343.4" cy="327.719" rx="3.17452" ry="3.02956" fill="#F08315"/>
<ellipse cx="343.4" cy="414.97" rx="3.17452" ry="3.02956" fill="#F08315"/>
<ellipse cx="343.4" cy="284.093" rx="3.17452" ry="3.02956" fill="#F08315"/>
<ellipse cx="343.4" cy="371.345" rx="3.17452" ry="3.02956" fill="#F08315"/>
<ellipse cx="343.4" cy="218.655" rx="3.17452" ry="3.02956" fill="#F08315"/>
<ellipse cx="343.4" cy="305.906" rx="3.17452" ry="3.02956" fill="#F08315"/>
<ellipse cx="343.4" cy="393.158" rx="3.17452" ry="3.02956" fill="#F08315"/>
<ellipse cx="343.4" cy="262.281" rx="3.17452" ry="3.02956" fill="#F08315"/>
<ellipse cx="343.4" cy="349.532" rx="3.17452" ry="3.02956" fill="#F08315"/>
<ellipse cx="251.973" cy="240.468" rx="3.17452" ry="3.02956" fill="#F08315"/>
<ellipse cx="251.973" cy="327.719" rx="3.17452" ry="3.02956" fill="#F08315"/>
<ellipse cx="251.973" cy="414.97" rx="3.17452" ry="3.02956" fill="#F08315"/>
<ellipse cx="251.973" cy="284.093" rx="3.17452" ry="3.02956" fill="#F08315"/>
<ellipse cx="251.973" cy="371.345" rx="3.17452" ry="3.02956" fill="#F08315"/>
<ellipse cx="251.973" cy="218.655" rx="3.17452" ry="3.02956" fill="#F08315"/>
<ellipse cx="251.973" cy="305.906" rx="3.17452" ry="3.02956" fill="#F08315"/>
<ellipse cx="251.973" cy="393.158" rx="3.17452" ry="3.02956" fill="#F08315"/>
<ellipse cx="251.973" cy="262.281" rx="3.17452" ry="3.02956" fill="#F08315"/>
<ellipse cx="251.973" cy="349.532" rx="3.17452" ry="3.02956" fill="#F08315"/>
<ellipse cx="389.112" cy="240.468" rx="3.17452" ry="3.02956" fill="#F08315"/>
<ellipse cx="389.112" cy="327.719" rx="3.17452" ry="3.02956" fill="#F08315"/>
<ellipse cx="389.112" cy="414.97" rx="3.17452" ry="3.02956" fill="#F08315"/>
<ellipse cx="389.112" cy="284.093" rx="3.17452" ry="3.02956" fill="#F08315"/>
<ellipse cx="389.112" cy="371.345" rx="3.17452" ry="3.02956" fill="#F08315"/>
<ellipse cx="389.112" cy="218.655" rx="3.17452" ry="3.02956" fill="#F08315"/>
<ellipse cx="389.112" cy="305.906" rx="3.17452" ry="3.02956" fill="#F08315"/>
<ellipse cx="389.112" cy="393.158" rx="3.17452" ry="3.02956" fill="#F08315"/>
<ellipse cx="389.112" cy="262.281" rx="3.17452" ry="3.02956" fill="#F08315"/>
<ellipse cx="389.112" cy="349.532" rx="3.17452" ry="3.02956" fill="#F08315"/>
<ellipse cx="434.826" cy="240.468" rx="3.17452" ry="3.02956" fill="#F08315"/>
<ellipse cx="434.826" cy="327.719" rx="3.17452" ry="3.02956" fill="#F08315"/>
<ellipse cx="434.826" cy="414.97" rx="3.17452" ry="3.02956" fill="#F08315"/>
<ellipse cx="434.826" cy="284.093" rx="3.17452" ry="3.02956" fill="#F08315"/>
<ellipse cx="434.826" cy="371.345" rx="3.17452" ry="3.02956" fill="#F08315"/>
<ellipse cx="434.826" cy="218.655" rx="3.17452" ry="3.02956" fill="#F08315"/>
<ellipse cx="434.826" cy="305.906" rx="3.17452" ry="3.02956" fill="#F08315"/>
<ellipse cx="434.826" cy="393.158" rx="3.17452" ry="3.02956" fill="#F08315"/>
<ellipse cx="434.826" cy="262.281" rx="3.17452" ry="3.02956" fill="#F08315"/>
<ellipse cx="434.826" cy="349.532" rx="3.17452" ry="3.02956" fill="#F08315"/>
<ellipse cx="297.686" cy="240.468" rx="3.17452" ry="3.02956" fill="#F08315"/>
<ellipse cx="297.686" cy="327.719" rx="3.17452" ry="3.02956" fill="#F08315"/>
<ellipse cx="297.686" cy="414.97" rx="3.17452" ry="3.02956" fill="#F08315"/>
<ellipse cx="297.686" cy="284.093" rx="3.17452" ry="3.02956" fill="#F08315"/>
<ellipse cx="297.686" cy="371.345" rx="3.17452" ry="3.02956" fill="#F08315"/>
<ellipse cx="297.686" cy="218.655" rx="3.17452" ry="3.02956" fill="#F08315"/>
<ellipse cx="297.686" cy="305.906" rx="3.17452" ry="3.02956" fill="#F08315"/>
<ellipse cx="297.686" cy="393.158" rx="3.17452" ry="3.02956" fill="#F08315"/>
<ellipse cx="297.686" cy="262.281" rx="3.17452" ry="3.02956" fill="#F08315"/>
<ellipse cx="297.686" cy="349.532" rx="3.17452" ry="3.02956" fill="#F08315"/>
<ellipse cx="320.543" cy="24.8424" rx="3.17452" ry="3.02956" fill="#F08315"/>
<ellipse cx="320.543" cy="112.094" rx="3.17452" ry="3.02956" fill="#F08315"/>
<ellipse cx="320.543" cy="199.345" rx="3.17452" ry="3.02956" fill="#F08315"/>
<ellipse cx="320.543" cy="68.4681" rx="3.17452" ry="3.02956" fill="#F08315"/>
<ellipse cx="320.543" cy="155.719" rx="3.17452" ry="3.02956" fill="#F08315"/>
<ellipse cx="320.543" cy="3.02956" rx="3.17452" ry="3.02956" fill="#F08315"/>
<ellipse cx="320.543" cy="90.2809" rx="3.17452" ry="3.02956" fill="#F08315"/>
<ellipse cx="320.543" cy="177.532" rx="3.17452" ry="3.02956" fill="#F08315"/>
<ellipse cx="320.543" cy="46.6552" rx="3.17452" ry="3.02956" fill="#F08315"/>
<ellipse cx="320.543" cy="133.907" rx="3.17452" ry="3.02956" fill="#F08315"/>
<ellipse cx="229.117" cy="24.8424" rx="3.17452" ry="3.02956" fill="#F08315"/>
<ellipse cx="229.117" cy="112.094" rx="3.17452" ry="3.02956" fill="#F08315"/>
<ellipse cx="229.117" cy="199.345" rx="3.17452" ry="3.02956" fill="#F08315"/>
<ellipse cx="229.117" cy="68.4681" rx="3.17452" ry="3.02956" fill="#F08315"/>
<ellipse cx="229.117" cy="155.719" rx="3.17452" ry="3.02956" fill="#F08315"/>
<ellipse cx="229.117" cy="3.02956" rx="3.17452" ry="3.02956" fill="#F08315"/>
<ellipse cx="229.117" cy="90.2809" rx="3.17452" ry="3.02956" fill="#F08315"/>
<ellipse cx="229.117" cy="177.532" rx="3.17452" ry="3.02956" fill="#F08315"/>
<ellipse cx="229.117" cy="46.6552" rx="3.17452" ry="3.02956" fill="#F08315"/>
<ellipse cx="229.117" cy="133.907" rx="3.17452" ry="3.02956" fill="#F08315"/>
<ellipse cx="366.256" cy="24.8424" rx="3.17452" ry="3.02956" fill="#F08315"/>
<ellipse cx="366.256" cy="112.094" rx="3.17452" ry="3.02956" fill="#F08315"/>
<ellipse cx="366.256" cy="199.345" rx="3.17452" ry="3.02956" fill="#F08315"/>
<ellipse cx="366.256" cy="68.4681" rx="3.17452" ry="3.02956" fill="#F08315"/>
<ellipse cx="366.256" cy="155.719" rx="3.17452" ry="3.02956" fill="#F08315"/>
<ellipse cx="366.256" cy="3.02956" rx="3.17452" ry="3.02956" fill="#F08315"/>
<ellipse cx="366.256" cy="90.2809" rx="3.17452" ry="3.02956" fill="#F08315"/>
<ellipse cx="366.256" cy="177.532" rx="3.17452" ry="3.02956" fill="#F08315"/>
<ellipse cx="366.256" cy="46.6552" rx="3.17452" ry="3.02956" fill="#F08315"/>
<ellipse cx="366.256" cy="133.907" rx="3.17452" ry="3.02956" fill="#F08315"/>
<ellipse cx="411.969" cy="24.8424" rx="3.17452" ry="3.02956" fill="#F08315"/>
<ellipse cx="411.969" cy="112.094" rx="3.17452" ry="3.02956" fill="#F08315"/>
<ellipse cx="411.969" cy="199.345" rx="3.17452" ry="3.02956" fill="#F08315"/>
<ellipse cx="411.969" cy="68.4681" rx="3.17452" ry="3.02956" fill="#F08315"/>
<ellipse cx="411.969" cy="155.719" rx="3.17452" ry="3.02956" fill="#F08315"/>
<ellipse cx="411.969" cy="3.02956" rx="3.17452" ry="3.02956" fill="#F08315"/>
<ellipse cx="411.969" cy="90.2809" rx="3.17452" ry="3.02956" fill="#F08315"/>
<ellipse cx="411.969" cy="177.532" rx="3.17452" ry="3.02956" fill="#F08315"/>
<ellipse cx="411.969" cy="46.6552" rx="3.17452" ry="3.02956" fill="#F08315"/>
<ellipse cx="411.969" cy="133.907" rx="3.17452" ry="3.02956" fill="#F08315"/>
<ellipse cx="274.83" cy="24.8424" rx="3.17452" ry="3.02956" fill="#F08315"/>
<ellipse cx="274.83" cy="112.094" rx="3.17452" ry="3.02956" fill="#F08315"/>
<ellipse cx="274.83" cy="199.345" rx="3.17452" ry="3.02956" fill="#F08315"/>
<ellipse cx="274.83" cy="68.4681" rx="3.17452" ry="3.02956" fill="#F08315"/>
<ellipse cx="274.83" cy="155.719" rx="3.17452" ry="3.02956" fill="#F08315"/>
<ellipse cx="274.83" cy="3.02956" rx="3.17452" ry="3.02956" fill="#F08315"/>
<ellipse cx="274.83" cy="90.2809" rx="3.17452" ry="3.02956" fill="#F08315"/>
<ellipse cx="274.83" cy="177.532" rx="3.17452" ry="3.02956" fill="#F08315"/>
<ellipse cx="274.83" cy="46.6552" rx="3.17452" ry="3.02956" fill="#F08315"/>
<ellipse cx="274.83" cy="133.907" rx="3.17452" ry="3.02956" fill="#F08315"/>
<ellipse cx="343.4" cy="24.8424" rx="3.17452" ry="3.02956" fill="#F08315"/>
<ellipse cx="343.4" cy="112.094" rx="3.17452" ry="3.02956" fill="#F08315"/>
<ellipse cx="343.4" cy="199.345" rx="3.17452" ry="3.02956" fill="#F08315"/>
<ellipse cx="343.4" cy="68.4681" rx="3.17452" ry="3.02956" fill="#F08315"/>
<ellipse cx="343.4" cy="155.719" rx="3.17452" ry="3.02956" fill="#F08315"/>
<ellipse cx="343.4" cy="3.02956" rx="3.17452" ry="3.02956" fill="#F08315"/>
<ellipse cx="343.4" cy="90.2809" rx="3.17452" ry="3.02956" fill="#F08315"/>
<ellipse cx="343.4" cy="177.532" rx="3.17452" ry="3.02956" fill="#F08315"/>
<ellipse cx="343.4" cy="46.6552" rx="3.17452" ry="3.02956" fill="#F08315"/>
<ellipse cx="343.4" cy="133.907" rx="3.17452" ry="3.02956" fill="#F08315"/>
<ellipse cx="251.973" cy="24.8424" rx="3.17452" ry="3.02956" fill="#F08315"/>
<ellipse cx="251.973" cy="112.094" rx="3.17452" ry="3.02956" fill="#F08315"/>
<ellipse cx="251.973" cy="199.345" rx="3.17452" ry="3.02956" fill="#F08315"/>
<ellipse cx="251.973" cy="68.4681" rx="3.17452" ry="3.02956" fill="#F08315"/>
<ellipse cx="251.973" cy="155.719" rx="3.17452" ry="3.02956" fill="#F08315"/>
<ellipse cx="251.973" cy="3.02956" rx="3.17452" ry="3.02956" fill="#F08315"/>
<ellipse cx="251.973" cy="90.2809" rx="3.17452" ry="3.02956" fill="#F08315"/>
<ellipse cx="251.973" cy="177.532" rx="3.17452" ry="3.02956" fill="#F08315"/>
<ellipse cx="251.973" cy="46.6552" rx="3.17452" ry="3.02956" fill="#F08315"/>
<ellipse cx="251.973" cy="133.907" rx="3.17452" ry="3.02956" fill="#F08315"/>
<ellipse cx="389.112" cy="24.8424" rx="3.17452" ry="3.02956" fill="#F08315"/>
<ellipse cx="389.112" cy="112.094" rx="3.17452" ry="3.02956" fill="#F08315"/>
<ellipse cx="389.112" cy="199.345" rx="3.17452" ry="3.02956" fill="#F08315"/>
<ellipse cx="389.112" cy="68.4681" rx="3.17452" ry="3.02956" fill="#F08315"/>
<ellipse cx="389.112" cy="155.719" rx="3.17452" ry="3.02956" fill="#F08315"/>
<ellipse cx="389.112" cy="3.02956" rx="3.17452" ry="3.02956" fill="#F08315"/>
<ellipse cx="389.112" cy="90.2809" rx="3.17452" ry="3.02956" fill="#F08315"/>
<ellipse cx="389.112" cy="177.532" rx="3.17452" ry="3.02956" fill="#F08315"/>
<ellipse cx="389.112" cy="46.6552" rx="3.17452" ry="3.02956" fill="#F08315"/>
<ellipse cx="389.112" cy="133.907" rx="3.17452" ry="3.02956" fill="#F08315"/>
<ellipse cx="434.826" cy="24.8424" rx="3.17452" ry="3.02956" fill="#F08315"/>
<ellipse cx="434.826" cy="112.094" rx="3.17452" ry="3.02956" fill="#F08315"/>
<ellipse cx="434.826" cy="199.345" rx="3.17452" ry="3.02956" fill="#F08315"/>
<ellipse cx="434.826" cy="68.4681" rx="3.17452" ry="3.02956" fill="#F08315"/>
<ellipse cx="434.826" cy="155.719" rx="3.17452" ry="3.02956" fill="#F08315"/>
<ellipse cx="434.826" cy="3.02956" rx="3.17452" ry="3.02956" fill="#F08315"/>
<ellipse cx="434.826" cy="90.2809" rx="3.17452" ry="3.02956" fill="#F08315"/>
<ellipse cx="434.826" cy="177.532" rx="3.17452" ry="3.02956" fill="#F08315"/>
<ellipse cx="434.826" cy="46.6552" rx="3.17452" ry="3.02956" fill="#F08315"/>
<ellipse cx="434.826" cy="133.907" rx="3.17452" ry="3.02956" fill="#F08315"/>
<ellipse cx="297.686" cy="24.8424" rx="3.17452" ry="3.02956" fill="#F08315"/>
<ellipse cx="297.686" cy="112.094" rx="3.17452" ry="3.02956" fill="#F08315"/>
<ellipse cx="297.686" cy="199.345" rx="3.17452" ry="3.02956" fill="#F08315"/>
<ellipse cx="297.686" cy="68.4681" rx="3.17452" ry="3.02956" fill="#F08315"/>
<ellipse cx="297.686" cy="155.719" rx="3.17452" ry="3.02956" fill="#F08315"/>
<ellipse cx="297.686" cy="3.02956" rx="3.17452" ry="3.02956" fill="#F08315"/>
<ellipse cx="297.686" cy="90.2809" rx="3.17452" ry="3.02956" fill="#F08315"/>
<ellipse cx="297.686" cy="177.532" rx="3.17452" ry="3.02956" fill="#F08315"/>
<ellipse cx="297.686" cy="46.6552" rx="3.17452" ry="3.02956" fill="#F08315"/>
<ellipse cx="297.686" cy="133.907" rx="3.17452" ry="3.02956" fill="#F08315"/>
</svg>
