<svg width="18" height="18" viewBox="0 0 18 18" fill="none" xmlns="http://www.w3.org/2000/svg">
<path fill-rule="evenodd" clip-rule="evenodd" d="M4.5 7.6C5.09991 5.20009 6.60009 4 9 4C12.6 4 13.05 6.7 14.85 7.15C16.0501 7.45009 17.1 7.00009 18 5.8C17.4001 8.19991 15.8999 9.4 13.5 9.4C9.9 9.4 9.45 6.7 7.65 6.25C6.44991 5.94991 5.4 6.39991 4.5 7.6ZM0 13C0.599906 10.6001 2.10009 9.4 4.5 9.4C8.1 9.4 8.55 12.1 10.35 12.55C11.5501 12.8501 12.6 12.4001 13.5 11.2C12.9001 13.5999 11.3999 14.8 9 14.8C5.4 14.8 4.95 12.1 3.15 11.65C1.94991 11.3499 0.9 11.7999 0 13Z" fill="white"/>
</svg>
