<svg width="43" height="43" viewBox="0 0 43 43" fill="none" xmlns="http://www.w3.org/2000/svg">
<path d="M39.2207 6.38281H3.7793C1.69119 6.38281 0 8.0845 0 10.1621V32.8379C0 34.9278 1.70362 36.6172 3.7793 36.6172H39.2207C41.2913 36.6172 43 34.935 43 32.8379V10.1621C43 8.0882 41.3155 6.38281 39.2207 6.38281ZM38.6914 8.90234C37.9193 9.67038 24.6312 22.8885 24.1724 23.3449C23.4585 24.0588 22.5095 24.4518 21.5 24.4518C20.4905 24.4518 19.5415 24.0587 18.8253 23.3425C18.5167 23.0356 5.37525 9.9634 4.30857 8.90234H38.6914ZM2.51953 32.3251V10.6765L13.4071 21.5067L2.51953 32.3251ZM4.31016 34.0977L15.1934 23.2836L17.0461 25.1264C18.2358 26.3162 19.8175 26.9713 21.5 26.9713C23.1825 26.9713 24.7642 26.3162 25.9516 25.1288L27.8066 23.2836L38.6898 34.0977H4.31016ZM40.4805 32.3251L29.5929 21.5067L40.4805 10.6765V32.3251Z" fill="#D67513"/>
</svg>
