<svg width="43" height="43" viewBox="0 0 43 43" fill="none" xmlns="http://www.w3.org/2000/svg">
<path d="M14.3357 21.5C14.3357 17.5421 17.5434 14.3328 21.5012 14.3328C25.4591 14.3328 28.6685 17.5421 28.6685 21.5C28.6685 25.4579 25.4591 28.6672 21.5012 28.6672C17.5434 28.6672 14.3357 25.4579 14.3357 21.5ZM10.4613 21.5C10.4613 27.5974 15.4038 32.54 21.5012 32.54C27.5986 32.54 32.5412 27.5974 32.5412 21.5C32.5412 15.4026 27.5986 10.46 21.5012 10.46C15.4038 10.46 10.4613 15.4026 10.4613 21.5ZM30.3983 10.0223C30.3981 10.5325 30.5492 11.0314 30.8325 11.4558C31.1158 11.8802 31.5187 12.2111 31.99 12.4065C32.4614 12.602 32.9801 12.6533 33.4806 12.5539C33.9811 12.4546 34.4409 12.209 34.8019 11.8484C35.1629 11.4877 35.4088 11.0281 35.5085 10.5276C35.6083 10.0272 35.5574 9.50844 35.3623 9.03693C35.1672 8.56542 34.8367 8.16235 34.4125 7.87868C33.9884 7.59502 33.4896 7.4435 32.9793 7.4433H32.9783C32.2943 7.44362 31.6384 7.7154 31.1547 8.19895C30.6709 8.6825 30.3989 9.33829 30.3983 10.0223ZM12.8152 39.0005C10.7191 38.905 9.57976 38.5559 8.82261 38.2609C7.81882 37.8701 7.10261 37.4047 6.3496 36.6527C5.59658 35.9007 5.13046 35.1852 4.7414 34.1814C4.44625 33.4246 4.09709 32.2849 4.0018 30.1888C3.89757 27.9225 3.87675 27.2417 3.87675 21.5002C3.87675 15.7586 3.89929 15.0798 4.0018 12.8116C4.09726 10.7154 4.449 9.57799 4.7414 8.81896C5.13218 7.81516 5.59761 7.09896 6.3496 6.34594C7.10158 5.59292 7.8171 5.1268 8.82261 4.73774C9.57941 4.44259 10.7191 4.09343 12.8152 3.99814C15.0815 3.89391 15.7623 3.8731 21.5012 3.8731C27.2402 3.8731 27.9217 3.89563 30.1898 3.99814C32.286 4.0936 33.4234 4.44534 34.1825 4.73774C35.1863 5.1268 35.9025 5.59396 36.6555 6.34594C37.4085 7.09792 37.8729 7.81516 38.2637 8.81896C38.5588 9.57576 38.908 10.7154 39.0033 12.8116C39.1075 15.0798 39.1283 15.7586 39.1283 21.5002C39.1283 27.2417 39.1075 27.9206 39.0033 30.1888C38.9078 32.2849 38.5569 33.4242 38.2637 34.1814C37.8729 35.1852 37.4075 35.9014 36.6555 36.6527C35.9035 37.404 35.1863 37.8701 34.1825 38.2609C33.4257 38.556 32.286 38.9052 30.1898 39.0005C27.9236 39.1047 27.2428 39.1255 21.5012 39.1255C15.7597 39.1255 15.0808 39.1047 12.8152 39.0005ZM12.6372 0.130204C10.3484 0.234436 8.78443 0.597356 7.41858 1.12884C6.00405 1.67769 4.80659 2.41402 3.60998 3.60873C2.41338 4.80344 1.67894 6.0028 1.13009 7.41733C0.598607 8.78404 0.235687 10.3472 0.131455 12.636C0.0255032 14.9284 0.00125122 15.6613 0.00125122 21.5C0.00125122 27.3387 0.0255032 28.0716 0.131455 30.364C0.235687 32.653 0.598607 34.216 1.13009 35.5827C1.67894 36.9963 2.41355 38.1971 3.60998 39.3913C4.80641 40.5855 6.00405 41.3208 7.41858 41.8712C8.78701 42.4026 10.3484 42.7656 12.6372 42.8698C14.9308 42.974 15.6625 43 21.5012 43C27.34 43 28.0728 42.9757 30.3653 42.8698C32.6542 42.7656 34.2172 42.4026 35.5839 41.8712C36.9976 41.3208 38.1959 40.586 39.3925 39.3913C40.5891 38.1966 41.322 36.9963 41.8724 35.5827C42.4039 34.216 42.7685 32.6528 42.871 30.364C42.9753 28.0699 42.9995 27.3387 42.9995 21.5C42.9995 15.6613 42.9753 14.9284 42.871 12.636C42.7668 10.347 42.4039 8.78318 41.8724 7.41733C41.322 6.00366 40.5872 4.80534 39.3925 3.60873C38.1978 2.41213 36.9976 1.67769 35.5856 1.12884C34.2172 0.597356 32.6541 0.232716 30.367 0.130204C28.0746 0.025972 27.3417 0 21.503 0C15.6643 0 14.9308 0.024252 12.6372 0.130204Z" fill="#D67513"/>
<path d="M14.3357 21.5C14.3357 17.5421 17.5434 14.3328 21.5012 14.3328C25.4591 14.3328 28.6685 17.5421 28.6685 21.5C28.6685 25.4579 25.4591 28.6672 21.5012 28.6672C17.5434 28.6672 14.3357 25.4579 14.3357 21.5ZM10.4613 21.5C10.4613 27.5974 15.4038 32.54 21.5012 32.54C27.5986 32.54 32.5412 27.5974 32.5412 21.5C32.5412 15.4026 27.5986 10.46 21.5012 10.46C15.4038 10.46 10.4613 15.4026 10.4613 21.5ZM30.3983 10.0223C30.3981 10.5325 30.5492 11.0314 30.8325 11.4558C31.1158 11.8802 31.5187 12.2111 31.99 12.4065C32.4614 12.602 32.9801 12.6533 33.4806 12.5539C33.9811 12.4546 34.4409 12.209 34.8019 11.8484C35.1629 11.4877 35.4088 11.0281 35.5085 10.5276C35.6083 10.0272 35.5574 9.50844 35.3623 9.03693C35.1672 8.56542 34.8367 8.16235 34.4125 7.87868C33.9884 7.59502 33.4896 7.4435 32.9793 7.4433H32.9783C32.2943 7.44362 31.6384 7.7154 31.1547 8.19895C30.6709 8.6825 30.3989 9.33829 30.3983 10.0223ZM12.8152 39.0005C10.7191 38.905 9.57976 38.5559 8.82261 38.2609C7.81882 37.8701 7.10261 37.4047 6.3496 36.6527C5.59658 35.9007 5.13046 35.1852 4.7414 34.1814C4.44625 33.4246 4.09709 32.2849 4.0018 30.1888C3.89757 27.9225 3.87675 27.2417 3.87675 21.5002C3.87675 15.7586 3.89929 15.0798 4.0018 12.8116C4.09726 10.7154 4.449 9.57799 4.7414 8.81896C5.13218 7.81516 5.59761 7.09896 6.3496 6.34594C7.10158 5.59292 7.8171 5.1268 8.82261 4.73774C9.57941 4.44259 10.7191 4.09343 12.8152 3.99814C15.0815 3.89391 15.7623 3.8731 21.5012 3.8731C27.2402 3.8731 27.9217 3.89563 30.1898 3.99814C32.286 4.0936 33.4234 4.44534 34.1825 4.73774C35.1863 5.1268 35.9025 5.59396 36.6555 6.34594C37.4085 7.09792 37.8729 7.81516 38.2637 8.81896C38.5588 9.57576 38.908 10.7154 39.0033 12.8116C39.1075 15.0798 39.1283 15.7586 39.1283 21.5002C39.1283 27.2417 39.1075 27.9206 39.0033 30.1888C38.9078 32.2849 38.5569 33.4242 38.2637 34.1814C37.8729 35.1852 37.4075 35.9014 36.6555 36.6527C35.9035 37.404 35.1863 37.8701 34.1825 38.2609C33.4257 38.556 32.286 38.9052 30.1898 39.0005C27.9236 39.1047 27.2428 39.1255 21.5012 39.1255C15.7597 39.1255 15.0808 39.1047 12.8152 39.0005ZM12.6372 0.130204C10.3484 0.234436 8.78443 0.597356 7.41858 1.12884C6.00405 1.67769 4.80659 2.41402 3.60998 3.60873C2.41338 4.80344 1.67894 6.0028 1.13009 7.41733C0.598607 8.78404 0.235687 10.3472 0.131455 12.636C0.0255032 14.9284 0.00125122 15.6613 0.00125122 21.5C0.00125122 27.3387 0.0255032 28.0716 0.131455 30.364C0.235687 32.653 0.598607 34.216 1.13009 35.5827C1.67894 36.9963 2.41355 38.1971 3.60998 39.3913C4.80641 40.5855 6.00405 41.3208 7.41858 41.8712C8.78701 42.4026 10.3484 42.7656 12.6372 42.8698C14.9308 42.974 15.6625 43 21.5012 43C27.34 43 28.0728 42.9757 30.3653 42.8698C32.6542 42.7656 34.2172 42.4026 35.5839 41.8712C36.9976 41.3208 38.1959 40.586 39.3925 39.3913C40.5891 38.1966 41.322 36.9963 41.8724 35.5827C42.4039 34.216 42.7685 32.6528 42.871 30.364C42.9753 28.0699 42.9995 27.3387 42.9995 21.5C42.9995 15.6613 42.9753 14.9284 42.871 12.636C42.7668 10.347 42.4039 8.78318 41.8724 7.41733C41.322 6.00366 40.5872 4.80534 39.3925 3.60873C38.1978 2.41213 36.9976 1.67769 35.5856 1.12884C34.2172 0.597356 32.6541 0.232716 30.367 0.130204C28.0746 0.025972 27.3417 0 21.503 0C15.6643 0 14.9308 0.024252 12.6372 0.130204Z" fill="#D67513"/>
</svg>
