<svg width="10" height="15" viewBox="0 0 10 15" fill="none" xmlns="http://www.w3.org/2000/svg">
<path d="M2.4995 15C3.87923 15 4.999 13.88 4.999 12.5V10H2.4995C1.11978 10 0 11.12 0 12.5C0 13.88 1.11978 15 2.4995 15Z" fill="#FCFCFC"/>
<path d="M0 7.5C0 6.12 1.11978 5 2.4995 5H4.999V10H2.4995C1.11978 10 0 8.88 0 7.5Z" fill="white"/>
<path d="M0.000732422 2.5C0.000732422 1.12 1.12051 0 2.50023 0H4.99973V5H2.50023C1.12051 5 0.000732422 3.88 0.000732422 2.5Z" fill="white"/>
<path d="M4.99902 0H7.49852C8.87825 0 9.99803 1.12 9.99803 2.5C9.99803 3.88 8.87825 5 7.49852 5H4.99902V0Z" fill="white"/>
<path d="M9.99803 7.5C9.99803 8.88 8.87825 10 7.49852 10C6.1188 10 4.99902 8.88 4.99902 7.5C4.99902 6.12 6.1188 5 7.49852 5C8.87825 5 9.99803 6.12 9.99803 7.5Z" fill="white"/>
</svg>
