<svg width="100" height="75" viewBox="0 0 100 75" fill="none" xmlns="http://www.w3.org/2000/svg">
<path d="M98.3451 8.16189C97.9061 8.16189 97.4852 8.33198 97.1748 8.63474C96.8645 8.9375 96.6901 9.34813 96.6901 9.7763V67.895H87.7038C77.0539 67.896 66.4386 69.0756 56.0613 71.4112C55.4104 71.5566 54.7296 71.5056 54.109 71.2652C53.4884 71.0248 52.9573 70.6062 52.5859 70.0648C58.4947 66.5365 65.2874 64.6683 72.2152 64.6662H91.7253C92.1642 64.6662 92.5852 64.4961 92.8955 64.1934C93.2059 63.8906 93.3802 63.48 93.3802 63.0518V51.7509C93.3802 51.3228 93.2059 50.9121 92.8955 50.6094C92.5852 50.3066 92.1642 50.1365 91.7253 50.1365C91.2864 50.1365 90.8654 50.3066 90.5551 50.6094C90.2447 50.9121 90.0704 51.3228 90.0704 51.7509V61.4374H72.2152C65.1325 61.4308 58.1694 63.2176 52.0067 66.6229V22.6916C52.0067 22.2634 51.8324 21.8528 51.522 21.55C51.2116 21.2473 50.7907 21.0772 50.3518 21.0772C49.9129 21.0772 49.4919 21.2473 49.1816 21.55C48.8712 21.8528 48.6968 22.2634 48.6968 22.6916V66.6213C42.5341 63.2163 35.5709 61.4301 28.4884 61.4374H10.6332V3.31866H36.1193C39.4558 3.3208 42.6549 4.61527 45.0135 6.91754C47.372 9.2198 48.6968 12.3414 48.6968 15.5962C48.6968 16.0244 48.8712 16.435 49.1816 16.7378C49.4919 17.0406 49.9129 17.2107 50.3518 17.2107C50.7907 17.2107 51.2116 17.0406 51.522 16.7378C51.8324 16.435 52.0067 16.0244 52.0067 15.5962C52.0067 12.3414 53.3316 9.2198 55.6901 6.91754C58.0486 4.61527 61.2477 3.3208 64.5843 3.31866H90.0704V45.2933C90.0704 45.7215 90.2447 46.1321 90.5551 46.4349C90.8654 46.7376 91.2864 46.9077 91.7253 46.9077C92.1642 46.9077 92.5852 46.7376 92.8955 46.4349C93.2059 46.1321 93.3802 45.7215 93.3802 45.2933V1.70425C93.3802 1.27608 93.2059 0.865454 92.8955 0.562694C92.5852 0.259933 92.1642 0.0898438 91.7253 0.0898438H64.5843C61.6261 0.0919866 58.7272 0.898656 56.213 2.41925C53.6989 3.93984 51.6691 6.11412 50.3518 8.69787C49.0344 6.11412 47.0047 3.93984 44.4905 2.41925C41.9764 0.898656 39.0774 0.0919866 36.1193 0.0898438H8.97826C8.53934 0.0898438 8.1184 0.259933 7.80804 0.562694C7.49768 0.865454 7.32332 1.27608 7.32332 1.70425V63.0518C7.32332 63.48 7.49768 63.8906 7.80804 64.1934C8.1184 64.4961 8.53934 64.6662 8.97826 64.6662H28.4884C35.4173 64.6677 42.2112 66.5359 48.1209 70.0648C47.7483 70.6048 47.217 71.0224 46.5968 71.2626C45.9766 71.5029 45.2964 71.5547 44.6455 71.4112C34.2673 69.0752 23.6507 67.8956 12.9998 67.895H4.01343V9.7763C4.01343 9.34813 3.83907 8.9375 3.52871 8.63474C3.21835 8.33198 2.79741 8.16189 2.35849 8.16189C1.91958 8.16189 1.49863 8.33198 1.18827 8.63474C0.877912 8.9375 0.703552 9.34813 0.703552 9.7763V69.5094C0.703552 69.9376 0.877912 70.3482 1.18827 70.651C1.49863 70.9538 1.91958 71.1238 2.35849 71.1238H12.9998C23.399 71.1254 33.7644 72.2774 43.8975 74.5577C45.0625 74.8201 46.2787 74.7681 47.4157 74.4075C48.5528 74.0469 49.5677 73.3912 50.3518 72.5106C51.1356 73.3914 52.1506 74.0474 53.2877 74.408C54.4248 74.7687 55.6411 74.8204 56.806 74.5577C66.9392 72.2778 77.3046 71.1258 87.7038 71.1238H98.3451C98.784 71.1238 99.2049 70.9538 99.5153 70.651C99.8256 70.3482 100 69.9376 100 69.5094V9.7763C100 9.34813 99.8256 8.9375 99.5153 8.63474C99.2049 8.33198 98.784 8.16189 98.3451 8.16189Z" fill="#D67513"/>
<path d="M44.9285 13.9944C42.3208 12.2956 39.2551 11.3894 36.1193 11.3904H17.253C16.8141 11.3904 16.3931 11.5605 16.0828 11.8632C15.7724 12.166 15.598 12.5766 15.598 13.0048C15.598 13.433 15.7724 13.8436 16.0828 14.1463C16.3931 14.4491 16.8141 14.6192 17.253 14.6192H36.1193C38.6042 14.6164 41.0338 15.334 43.0998 16.6808C43.465 16.9184 43.912 17.0048 44.3425 16.9209C44.773 16.8371 45.1516 16.5898 45.3952 16.2336C45.6388 15.8774 45.7274 15.4413 45.6414 15.0214C45.5555 14.6015 45.302 14.232 44.9368 13.9944H44.9285Z" fill="#D67513"/>
<path d="M83.4506 11.3904H64.5842C61.4457 11.388 58.3769 12.2942 55.7667 13.9944C55.5859 14.1121 55.4306 14.2633 55.3097 14.4395C55.1888 14.6158 55.1047 14.8135 55.0621 15.0214C55.0195 15.2293 55.0194 15.4434 55.0616 15.6514C55.1039 15.8594 55.1877 16.0572 55.3083 16.2336C55.4289 16.41 55.584 16.5615 55.7646 16.6794C55.9452 16.7973 56.1479 16.8794 56.3611 16.9209C56.5742 16.9625 56.7937 16.9626 57.0069 16.9214C57.2201 16.8802 57.4229 16.7984 57.6037 16.6808C59.6699 15.3344 62.0995 14.6169 64.5842 14.6192H83.4506C83.8895 14.6192 84.3104 14.4491 84.6208 14.1463C84.9312 13.8436 85.1055 13.433 85.1055 13.0048C85.1055 12.5766 84.9312 12.166 84.6208 11.8632C84.3104 11.5605 83.8895 11.3904 83.4506 11.3904Z" fill="#D67513"/>
<path d="M44.9285 22.0667C42.3208 20.3678 39.2551 19.4616 36.1193 19.4626H17.253C16.8141 19.4626 16.3931 19.6327 16.0828 19.9355C15.7724 20.2383 15.598 20.6489 15.598 21.0771C15.598 21.5052 15.7724 21.9159 16.0828 22.2186C16.3931 22.5214 16.8141 22.6915 17.253 22.6915H36.1193C38.6042 22.6887 41.0338 23.4063 43.0998 24.7531C43.465 24.9907 43.912 25.0771 44.3425 24.9932C44.773 24.9094 45.1516 24.6621 45.3952 24.3059C45.6388 23.9497 45.7274 23.5136 45.6414 23.0937C45.5555 22.6738 45.302 22.3043 44.9368 22.0667H44.9285Z" fill="#D67513"/>
<path d="M83.4506 19.4627H64.5842C61.4457 19.4602 58.3769 20.3665 55.7667 22.0667C55.5859 22.1844 55.4306 22.3356 55.3097 22.5118C55.1888 22.688 55.1047 22.8858 55.0621 23.0937C55.0195 23.3016 55.0194 23.5157 55.0616 23.7237C55.1039 23.9317 55.1877 24.1295 55.3083 24.3059C55.4289 24.4823 55.584 24.6338 55.7646 24.7517C55.9452 24.8697 56.1479 24.9517 56.3611 24.9933C56.5742 25.0348 56.7937 25.0349 57.0069 24.9937C57.2201 24.9525 57.4229 24.8708 57.6037 24.7531C59.6699 23.4067 62.0995 22.6892 64.5842 22.6915H83.4506C83.8895 22.6915 84.3104 22.5214 84.6208 22.2186C84.9312 21.9159 85.1055 21.5052 85.1055 21.0771C85.1055 20.6489 84.9312 20.2383 84.6208 19.9355C84.3104 19.6327 83.8895 19.4627 83.4506 19.4627Z" fill="#D67513"/>
<path d="M44.9285 30.1392C42.3208 28.4404 39.2551 27.5341 36.1193 27.5352H17.253C16.8141 27.5352 16.3931 27.7052 16.0828 28.008C15.7724 28.3108 15.598 28.7214 15.598 29.1496C15.598 29.5777 15.7724 29.9884 16.0828 30.2911C16.3931 30.5939 16.8141 30.764 17.253 30.764H36.1193C38.6042 30.7612 41.0338 31.4788 43.0998 32.8256C43.465 33.0632 43.912 33.1496 44.3425 33.0657C44.773 32.9818 45.1516 32.7346 45.3952 32.3784C45.6388 32.0221 45.7274 31.5861 45.6414 31.1662C45.5555 30.7462 45.302 30.3768 44.9368 30.1392H44.9285Z" fill="#D67513"/>
<path d="M83.4506 27.5352H64.5842C61.4457 27.5327 58.3769 28.439 55.7667 30.1392C55.5859 30.2569 55.4306 30.4081 55.3097 30.5843C55.1888 30.7605 55.1047 30.9582 55.0621 31.1662C55.0195 31.3741 55.0194 31.5882 55.0616 31.7962C55.1039 32.0041 55.1877 32.202 55.3083 32.3784C55.4289 32.5548 55.584 32.7062 55.7646 32.8242C55.9452 32.9421 56.1479 33.0242 56.3611 33.0657C56.5742 33.1072 56.7937 33.1074 57.0069 33.0662C57.2201 33.025 57.4229 32.9432 57.6037 32.8256C59.6699 31.4792 62.0995 30.7617 64.5842 30.764H83.4506C83.8895 30.764 84.3104 30.5939 84.6208 30.2911C84.9312 29.9884 85.1055 29.5777 85.1055 29.1496C85.1055 28.7214 84.9312 28.3108 84.6208 28.008C84.3104 27.7052 83.8895 27.5352 83.4506 27.5352Z" fill="#D67513"/>
<path d="M44.9285 38.211C42.3207 36.5121 39.2551 35.6059 36.1193 35.6069H17.253C16.8141 35.6069 16.3931 35.777 16.0828 36.0798C15.7724 36.3825 15.598 36.7932 15.598 37.2214C15.598 37.6495 15.7724 38.0602 16.0828 38.3629C16.3931 38.6657 16.8141 38.8358 17.253 38.8358H36.1193C38.6041 38.833 41.0338 39.5506 43.0998 40.8974C43.2806 41.015 43.4834 41.0968 43.6966 41.138C43.9098 41.1792 44.1293 41.1791 44.3424 41.1375C44.5556 41.096 44.7582 41.0139 44.9389 40.896C45.1195 40.7781 45.2746 40.6266 45.3952 40.4502C45.5158 40.2738 45.5996 40.076 45.6419 39.868C45.6841 39.66 45.6839 39.4459 45.6414 39.238C45.5988 39.03 45.5147 38.8323 45.3938 38.6561C45.2729 38.4799 45.1176 38.3287 44.9368 38.211H44.9285Z" fill="#D67513"/>
<path d="M83.4506 35.6069H64.5843C61.4457 35.6045 58.3769 36.5108 55.7667 38.211C55.4015 38.4486 55.1481 38.818 55.0621 39.238C54.9762 39.6579 55.0647 40.0939 55.3083 40.4502C55.5519 40.8064 55.9306 41.0537 56.3611 41.1375C56.7915 41.2214 57.2385 41.135 57.6037 40.8974C59.6699 39.551 62.0995 38.8335 64.5843 38.8358H83.4506C83.8895 38.8358 84.3104 38.6657 84.6208 38.3629C84.9312 38.0602 85.1055 37.6495 85.1055 37.2214C85.1055 36.7932 84.9312 36.3825 84.6208 36.0798C84.3104 35.777 83.8895 35.6069 83.4506 35.6069Z" fill="#D67513"/>
<path d="M44.9285 46.283C42.3208 44.5841 39.2551 43.6779 36.1193 43.679H17.253C16.8141 43.679 16.3931 43.849 16.0828 44.1518C15.7724 44.4546 15.598 44.8652 15.598 45.2934C15.598 45.7215 15.7724 46.1322 16.0828 46.4349C16.3931 46.7377 16.8141 46.9078 17.253 46.9078H36.1193C38.6042 46.905 41.0338 47.6225 43.0998 48.9694C43.465 49.207 43.912 49.2934 44.3425 49.2095C44.773 49.1256 45.1516 48.8784 45.3952 48.5222C45.6388 48.1659 45.7274 47.7299 45.6414 47.31C45.5555 46.89 45.302 46.5206 44.9368 46.283H44.9285Z" fill="#D67513"/>
<path d="M83.4506 43.679H64.5842C61.4457 43.6765 58.3769 44.5828 55.7667 46.283C55.5859 46.4007 55.4306 46.5519 55.3097 46.7281C55.1888 46.9043 55.1047 47.102 55.0621 47.31C55.0195 47.5179 55.0194 47.732 55.0616 47.94C55.1039 48.1479 55.1877 48.3458 55.3083 48.5222C55.5519 48.8784 55.9306 49.1256 56.3611 49.2095C56.5742 49.251 56.7937 49.2512 57.0069 49.21C57.2201 49.1688 57.4229 49.087 57.6037 48.9694C59.6699 47.623 62.0995 46.9055 64.5842 46.9078H83.4506C83.8895 46.9078 84.3104 46.7377 84.6208 46.4349C84.9312 46.1322 85.1055 45.7215 85.1055 45.2934C85.1055 44.8652 84.9312 44.4546 84.6208 44.1518C84.3104 43.849 83.8895 43.679 83.4506 43.679Z" fill="#D67513"/>
<path d="M36.1193 51.7507H17.253C16.8141 51.7507 16.3931 51.9208 16.0828 52.2236C15.7724 52.5264 15.598 52.937 15.598 53.3652C15.598 53.7933 15.7724 54.204 16.0828 54.5067C16.3931 54.8095 16.8141 54.9796 17.253 54.9796H36.1193C38.6041 54.9768 41.0338 55.6944 43.0998 57.0412C43.2806 57.1588 43.4834 57.2406 43.6966 57.2818C43.9098 57.323 44.1293 57.3229 44.3424 57.2813C44.5556 57.2398 44.7582 57.1577 44.9389 57.0398C45.1195 56.9219 45.2746 56.7704 45.3952 56.594C45.5158 56.4176 45.5996 56.2198 45.6419 56.0118C45.6841 55.8038 45.6839 55.5897 45.6414 55.3818C45.5988 55.1738 45.5147 54.9761 45.3938 54.7999C45.2729 54.6237 45.1176 54.4725 44.9368 54.3548C42.3267 52.6544 39.2579 51.7481 36.1193 51.7507V51.7507Z" fill="#D67513"/>
<path d="M83.4506 51.7507H64.5842C61.4457 51.7483 58.3769 52.6546 55.7667 54.3548C55.5859 54.4725 55.4306 54.6237 55.3097 54.7999C55.1888 54.9761 55.1047 55.1738 55.0621 55.3818C55.0195 55.5897 55.0194 55.8038 55.0616 56.0118C55.1039 56.2198 55.1877 56.4176 55.3083 56.594C55.4289 56.7704 55.584 56.9219 55.7646 57.0398C55.9452 57.1577 56.1479 57.2398 56.3611 57.2813C56.5742 57.3229 56.7937 57.323 57.0069 57.2818C57.2201 57.2406 57.4229 57.1588 57.6037 57.0412C59.6699 55.6948 62.0995 54.9773 64.5842 54.9796H83.4506C83.8895 54.9796 84.3104 54.8095 84.6208 54.5067C84.9312 54.204 85.1055 53.7933 85.1055 53.3652C85.1055 52.937 84.9312 52.5263 84.6208 52.2236C84.3104 51.9208 83.8895 51.7507 83.4506 51.7507Z" fill="#D67513"/>
</svg>
