<svg width="106" height="102" viewBox="0 0 106 102" fill="none" xmlns="http://www.w3.org/2000/svg">
<path d="M84.4429 75.1064C84.0611 74.7359 83.5316 74.5227 82.9919 74.5227C82.4521 74.5227 81.9226 74.7359 81.5408 75.1064C81.1591 75.477 80.9395 75.991 80.9395 76.5149C80.9395 77.0388 81.1591 77.5528 81.5408 77.9234C81.9226 78.2959 82.4521 78.5071 82.9919 78.5071C83.5316 78.5071 84.0611 78.2959 84.4429 77.9234C84.8246 77.5528 85.0442 77.0388 85.0442 76.5149C85.0442 75.991 84.8246 75.4772 84.4429 75.1064Z" fill="#D67513"/>
<path d="M97.7687 0H9.10778C4.58115 0 0.898438 3.57479 0.898438 7.96877V70.5401C0.898438 74.9341 4.58115 78.5089 9.10778 78.5089H41.3295V88.5091C35.3095 89.0784 30.589 94.0175 30.589 100.008C30.589 101.108 31.5078 102 32.6413 102H74.2354C75.3689 102 76.2877 101.108 76.2877 100.008C76.2877 93.882 71.3508 88.8571 65.1368 88.4786V78.5089H74.7144C75.8479 78.5089 76.7667 77.617 76.7667 76.5167C76.7667 75.4164 75.8479 74.5245 74.7144 74.5245H9.10778C6.84447 74.5245 5.00311 72.7371 5.00311 70.5401V7.96877C5.00311 5.77178 6.84447 3.98438 9.10778 3.98438H97.7687C100.032 3.98438 101.873 5.77178 101.873 7.96877V70.5401C101.873 72.7371 100.032 74.5245 97.7687 74.5245H90.1067C88.9732 74.5245 88.0544 75.4164 88.0544 76.5167C88.0544 77.617 88.9732 78.5089 90.1067 78.5089H97.7687C102.295 78.5089 105.978 74.9341 105.978 70.5401V7.96877C105.978 3.57459 102.295 0 97.7687 0ZM45.4341 78.5089H61.0319V88.4533H45.4341V78.5089ZM64.384 92.4377C67.9743 92.4377 71.0058 94.8048 71.909 98.0158H34.9674C35.8704 94.8048 38.902 92.4377 42.4923 92.4377H64.384Z" fill="#D67513"/>
<path d="M54.684 68.7317C54.3023 68.3611 53.7728 68.1479 53.233 68.1479C52.6932 68.1479 52.1637 68.3611 51.782 68.7317C51.4003 69.1022 51.1807 69.6162 51.1807 70.1401C51.1807 70.6661 51.4003 71.1781 51.782 71.5486C52.1637 71.9212 52.6932 72.1323 53.233 72.1323C53.7728 72.1323 54.3023 71.9212 54.684 71.5486C55.0657 71.1781 55.2853 70.6661 55.2853 70.1401C55.2853 69.6162 55.0657 69.1022 54.684 68.7317Z" fill="#D67513"/>
<path d="M30.9028 36.5188L40.9584 26.758C41.76 25.9801 41.76 24.7186 40.9586 23.9406C40.1571 23.1627 38.8576 23.1627 38.056 23.9406L26.5494 35.1101C25.7479 35.888 25.7479 37.1495 26.5494 37.9277L38.056 49.0971C38.4568 49.4862 38.982 49.6806 39.5072 49.6806C40.0324 49.6806 40.5578 49.4862 40.9584 49.0971C41.7598 48.3192 41.7598 47.0577 40.9584 46.2795L30.9028 36.5188Z" fill="#D67513"/>
<path d="M80.3269 35.1101L68.8203 23.9406C68.0188 23.1627 66.7193 23.1627 65.9177 23.9406C65.1162 24.7186 65.1162 25.9801 65.9177 26.7582L75.9733 36.519L65.9177 46.2797C65.1164 47.0577 65.1164 48.3192 65.9179 49.0971C66.3187 49.4862 66.8439 49.6806 67.3691 49.6806C67.8943 49.6806 68.4197 49.4862 68.8203 49.0971L80.3269 37.9277C81.1283 37.1495 81.1283 35.8882 80.3269 35.1101Z" fill="#D67513"/>
<path d="M57.0415 24.2099C55.9468 23.9246 54.8213 24.5559 54.5278 25.6186L48.3835 47.8775C48.0902 48.9404 48.74 50.0327 49.8347 50.3176C50.0127 50.3638 50.1914 50.3859 50.3673 50.3859C51.2734 50.3859 52.1028 49.7988 52.3484 48.9089L58.4927 26.6499C58.7862 25.5869 58.1364 24.4948 57.0415 24.2099Z" fill="#D67513"/>
<path d="M95.7164 7.98438H63.0842C61.9507 7.98438 61.0319 8.87628 61.0319 9.97657C61.0319 11.0769 61.9507 11.9688 63.0842 11.9688H93.664V61.7736H13.2125V11.9688H44.7158C45.8493 11.9688 46.7682 11.0769 46.7682 9.97657C46.7682 8.87628 45.8493 7.98438 44.7158 7.98438H11.1601C10.0266 7.98438 9.10779 8.87628 9.10779 9.97657V63.7658C9.10779 64.8661 10.0266 65.758 11.1601 65.758H95.7164C96.8499 65.758 97.7687 64.8661 97.7687 63.7658V9.97657C97.7687 8.87628 96.8499 7.98438 95.7164 7.98438Z" fill="#D67513"/>
<path d="M55.5033 7.69362C55.1216 7.2533 54.5921 7 54.0523 7C53.5126 7 52.9831 7.2533 52.6013 7.69362C52.2196 8.13393 52 8.7447 52 9.36729C52 9.98989 52.2196 10.6007 52.6013 11.0433C52.9831 11.4837 53.5126 11.7346 54.0523 11.7346C54.5921 11.7346 55.1216 11.4837 55.5033 11.0433C55.8851 10.6007 56.1047 9.99226 56.1047 9.36729C56.1047 8.7447 55.8851 8.13393 55.5033 7.69362Z" fill="#D67513"/>
</svg>
