<svg width="117" height="87" viewBox="0 0 117 87" fill="none" xmlns="http://www.w3.org/2000/svg">
<path d="M114.162 9.37964C113.652 9.37964 113.163 9.57728 112.802 9.92909C112.442 10.2809 112.239 10.758 112.239 11.2556V78.789H101.797C89.422 78.7901 77.087 80.1608 65.0288 82.8747C64.2724 83.0436 63.4813 82.9845 62.7602 82.7051C62.0391 82.4257 61.4219 81.9393 60.9904 81.3102C67.8563 77.2104 75.7493 75.0395 83.7994 75.0371H106.47C106.98 75.0371 107.469 74.8395 107.83 74.4877C108.19 74.1359 108.393 73.6587 108.393 73.1612V60.0297C108.393 59.5322 108.19 59.055 107.83 58.7032C107.469 58.3514 106.98 58.1538 106.47 58.1538C105.96 58.1538 105.471 58.3514 105.11 58.7032C104.75 59.055 104.547 59.5322 104.547 60.0297V71.2853H83.7994C75.5694 71.2776 67.4783 73.3538 60.3173 77.3108V26.263C60.3173 25.7655 60.1147 25.2883 59.7541 24.9365C59.3935 24.5847 58.9043 24.3871 58.3943 24.3871C57.8843 24.3871 57.3952 24.5847 57.0345 24.9365C56.6739 25.2883 56.4713 25.7655 56.4713 26.263V77.3089C49.3103 73.3523 41.2191 71.2767 32.9892 71.2853H12.2417V3.75186H41.8563C45.7333 3.75434 49.4507 5.25851 52.1912 7.93371C54.9318 10.6089 56.4713 14.2362 56.4713 18.0183C56.4713 18.5158 56.6739 18.993 57.0345 19.3448C57.3952 19.6966 57.8843 19.8942 58.3943 19.8942C58.9043 19.8942 59.3935 19.6966 59.7541 19.3448C60.1147 18.993 60.3173 18.5158 60.3173 18.0183C60.3173 14.2362 61.8568 10.6089 64.5974 7.93371C67.338 5.25851 71.0553 3.75434 74.9323 3.75186H104.547V52.526C104.547 53.0235 104.75 53.5007 105.11 53.8525C105.471 54.2043 105.96 54.4019 106.47 54.4019C106.98 54.4019 107.469 54.2043 107.83 53.8525C108.19 53.5007 108.393 53.0235 108.393 52.526V1.87593C108.393 1.3784 108.19 0.901252 107.83 0.549447C107.469 0.197642 106.98 0 106.47 0H74.9323C71.495 0.00248997 68.1264 0.939832 65.205 2.70674C62.2836 4.47366 59.9251 7.00015 58.3943 10.0024C56.8635 7.00015 54.505 4.47366 51.5836 2.70674C48.6622 0.939832 45.2936 0.00248997 41.8563 0H10.3187C9.80866 0 9.31953 0.197642 8.95889 0.549447C8.59826 0.901252 8.39565 1.3784 8.39565 1.87593V73.1612C8.39565 73.6587 8.59826 74.1359 8.95889 74.4877C9.31953 74.8395 9.80866 75.0371 10.3187 75.0371H32.9892C41.0406 75.0388 48.9351 77.2097 55.8021 81.3102C55.3691 81.9377 54.7518 82.4229 54.0311 82.7021C53.3104 82.9813 52.5201 83.0415 51.7637 82.8747C39.7043 80.1603 27.368 78.7896 14.9916 78.789H4.5496V11.2556C4.5496 10.758 4.347 10.2809 3.98636 9.92909C3.62572 9.57728 3.1366 9.37964 2.62658 9.37964C2.11656 9.37964 1.62743 9.57728 1.26679 9.92909C0.906156 10.2809 0.703552 10.758 0.703552 11.2556V80.6649C0.703552 81.1624 0.906156 81.6396 1.26679 81.9914C1.62743 82.3432 2.11656 82.5408 2.62658 82.5408H14.9916C27.0754 82.5427 39.12 83.8813 50.8945 86.5309C52.2482 86.8358 53.6614 86.7755 54.9827 86.3564C56.3039 85.9374 57.4832 85.1754 58.3943 84.1523C59.3051 85.1758 60.4845 85.938 61.8058 86.357C63.1271 86.7761 64.5404 86.8362 65.8941 86.5309C77.6687 83.8817 89.7133 82.5431 101.797 82.5408H114.162C114.672 82.5408 115.161 82.3432 115.522 81.9914C115.882 81.6396 116.085 81.1624 116.085 80.6649V11.2556C116.085 10.758 115.882 10.2809 115.522 9.92909C115.161 9.57728 114.672 9.37964 114.162 9.37964Z" fill="#D67513"/>
<path d="M52.0926 16.1572C49.0624 14.1832 45.5001 13.1302 41.8563 13.1313H19.9338C19.4238 13.1313 18.9347 13.329 18.574 13.6808C18.2134 14.0326 18.0108 14.5097 18.0108 15.0073C18.0108 15.5048 18.2134 15.9819 18.574 16.3337C18.9347 16.6855 19.4238 16.8832 19.9338 16.8832H41.8563C44.7437 16.88 47.5669 17.7138 49.9676 19.2787C50.392 19.5549 50.9114 19.6552 51.4116 19.5578C51.9118 19.4603 52.3518 19.173 52.6349 18.7591C52.9179 18.3452 53.0208 17.8385 52.9209 17.3505C52.821 16.8626 52.5265 16.4333 52.1022 16.1572H52.0926Z" fill="#D67513"/>
<path d="M96.8548 13.1314H74.9323C71.2853 13.1285 67.7195 14.1816 64.6864 16.1572C64.4763 16.2939 64.2959 16.4697 64.1554 16.6744C64.0149 16.8792 63.9171 17.1089 63.8677 17.3505C63.8182 17.5922 63.818 17.8409 63.8671 18.0826C63.9162 18.3243 64.0136 18.5542 64.1538 18.7591C64.2939 18.9641 64.4741 19.1401 64.684 19.2771C64.8939 19.4142 65.1294 19.5095 65.377 19.5578C65.6247 19.6061 65.8797 19.6062 66.1275 19.5584C66.3752 19.5105 66.6109 19.4155 66.821 19.2787C69.2219 17.7143 72.045 16.8805 74.9323 16.8832H96.8548C97.3648 16.8832 97.854 16.6856 98.2146 16.3338C98.5752 15.9819 98.7778 15.5048 98.7778 15.0073C98.7778 14.5097 98.5752 14.0326 98.2146 13.6808C97.854 13.329 97.3648 13.1314 96.8548 13.1314Z" fill="#D67513"/>
<path d="M52.0926 25.5371C49.0624 23.5631 45.5001 22.51 41.8563 22.5112H19.9338C19.4238 22.5112 18.9347 22.7089 18.574 23.0607C18.2134 23.4125 18.0108 23.8896 18.0108 24.3872C18.0108 24.8847 18.2134 25.3619 18.574 25.7137C18.9347 26.0655 19.4238 26.2631 19.9338 26.2631H41.8563C44.7437 26.2599 47.5669 27.0937 49.9676 28.6587C50.392 28.9348 50.9114 29.0352 51.4116 28.9377C51.9118 28.8403 52.3518 28.553 52.6349 28.139C52.9179 27.7251 53.0208 27.2184 52.9209 26.7305C52.821 26.2425 52.5265 25.8132 52.1022 25.5371H52.0926Z" fill="#D67513"/>
<path d="M96.8548 22.5112H74.9323C71.2853 22.5084 67.7195 23.5615 64.6864 25.5371C64.4763 25.6738 64.2959 25.8496 64.1554 26.0544C64.0149 26.2591 63.9171 26.4889 63.8677 26.7305C63.8182 26.9721 63.818 27.2208 63.8671 27.4625C63.9162 27.7042 64.0136 27.9341 64.1538 28.139C64.2939 28.344 64.4741 28.52 64.684 28.6571C64.8939 28.7941 65.1294 28.8895 65.377 28.9377C65.6247 28.986 65.8797 28.9862 66.1275 28.9383C66.3752 28.8904 66.6109 28.7954 66.821 28.6587C69.2219 27.0942 72.045 26.2605 74.9323 26.2631H96.8548C97.3648 26.2631 97.854 26.0655 98.2146 25.7137C98.5752 25.3619 98.7778 24.8847 98.7778 24.3872C98.7778 23.8896 98.5752 23.4125 98.2146 23.0607C97.854 22.7089 97.3648 22.5112 96.8548 22.5112Z" fill="#D67513"/>
<path d="M52.0926 34.917C49.0624 32.9429 45.5001 31.8899 41.8563 31.8911H19.9338C19.4238 31.8911 18.9347 32.0888 18.574 32.4406C18.2134 32.7924 18.0108 33.2695 18.0108 33.767C18.0108 34.2646 18.2134 34.7417 18.574 35.0935C18.9347 35.4453 19.4238 35.643 19.9338 35.643H41.8563C44.7437 35.6397 47.5669 36.4735 49.9676 38.0385C50.392 38.3146 50.9114 38.415 51.4116 38.3176C51.9118 38.2201 52.3518 37.9328 52.6349 37.5189C52.9179 37.1049 53.0208 36.5983 52.9209 36.1103C52.821 35.6224 52.5265 35.1931 52.1022 34.917H52.0926Z" fill="#D67513"/>
<path d="M96.8548 31.8911H74.9323C71.2853 31.8883 67.7195 32.9414 64.6864 34.917C64.4763 35.0537 64.2959 35.2295 64.1554 35.4342C64.0149 35.639 63.9171 35.8687 63.8677 36.1103C63.8182 36.3519 63.818 36.6007 63.8671 36.8424C63.9162 37.084 64.0136 37.3139 64.1538 37.5189C64.2939 37.7238 64.4741 37.8999 64.684 38.0369C64.8939 38.1739 65.1294 38.2693 65.377 38.3176C65.6247 38.3658 65.8797 38.366 66.1275 38.3181C66.3752 38.2703 66.6109 38.1752 66.821 38.0385C69.2219 36.4741 72.045 35.6403 74.9323 35.643H96.8548C97.3648 35.643 97.854 35.4453 98.2146 35.0935C98.5752 34.7417 98.7778 34.2646 98.7778 33.767C98.7778 33.2695 98.5752 32.7924 98.2146 32.4406C97.854 32.0888 97.3648 31.8911 96.8548 31.8911Z" fill="#D67513"/>
<path d="M52.0925 44.2964C49.0623 42.3223 45.5 41.2693 41.8563 41.2705H19.9338C19.4238 41.2705 18.9347 41.4682 18.574 41.82C18.2134 42.1718 18.0108 42.6489 18.0108 43.1464C18.0108 43.644 18.2134 44.1211 18.574 44.4729C18.9347 44.8247 19.4238 45.0224 19.9338 45.0224H41.8563C44.7436 45.0192 47.5669 45.853 49.9676 47.418C50.1777 47.5547 50.4133 47.6497 50.6611 47.6976C50.9088 47.7455 51.1638 47.7453 51.4115 47.697C51.6592 47.6488 51.8947 47.5534 52.1046 47.4164C52.3145 47.2793 52.4946 47.1033 52.6348 46.8983C52.775 46.6934 52.8724 46.4635 52.9214 46.2218C52.9705 45.9801 52.9703 45.7313 52.9209 45.4897C52.8714 45.2481 52.7736 45.0184 52.6332 44.8136C52.4927 44.6089 52.3122 44.4331 52.1021 44.2964H52.0925Z" fill="#D67513"/>
<path d="M96.8548 41.2705H74.9323C71.2853 41.2677 67.7195 42.3208 64.6864 44.2964C64.2621 44.5725 63.9676 45.0018 63.8677 45.4897C63.7678 45.9777 63.8707 46.4844 64.1538 46.8983C64.4368 47.3123 64.8768 47.5996 65.3771 47.697C65.8773 47.7945 66.3967 47.6941 66.821 47.418C69.2219 45.8535 72.045 45.0197 74.9323 45.0224H96.8548C97.3648 45.0224 97.854 44.8247 98.2146 44.4729C98.5752 44.1211 98.7778 43.644 98.7778 43.1464C98.7778 42.6489 98.5752 42.1718 98.2146 41.82C97.854 41.4682 97.3648 41.2705 96.8548 41.2705Z" fill="#D67513"/>
<path d="M52.0926 53.676C49.0624 51.702 45.5001 50.649 41.8563 50.6501H19.9338C19.4238 50.6501 18.9347 50.8478 18.574 51.1996C18.2134 51.5514 18.0108 52.0285 18.0108 52.5261C18.0108 53.0236 18.2134 53.5007 18.574 53.8525C18.9347 54.2043 19.4238 54.402 19.9338 54.402H41.8563C44.7437 54.3988 47.5669 55.2326 49.9676 56.7975C50.392 57.0737 50.9114 57.174 51.4116 57.0766C51.9118 56.9791 52.3518 56.6918 52.6349 56.2779C52.9179 55.864 53.0208 55.3573 52.9209 54.8693C52.821 54.3814 52.5265 53.9521 52.1022 53.676H52.0926Z" fill="#D67513"/>
<path d="M96.8548 50.6502H74.9323C71.2853 50.6473 67.7195 51.7004 64.6864 53.676C64.4763 53.8127 64.2959 53.9885 64.1554 54.1932C64.0149 54.398 63.9171 54.6277 63.8677 54.8693C63.8182 55.111 63.818 55.3597 63.8671 55.6014C63.9162 55.8431 64.0136 56.073 64.1538 56.2779C64.4368 56.6919 64.8768 56.9792 65.377 57.0766C65.6247 57.1249 65.8797 57.125 66.1275 57.0772C66.3752 57.0293 66.6109 56.9343 66.821 56.7975C69.2219 55.2331 72.045 54.3993 74.9323 54.402H96.8548C97.3648 54.402 97.854 54.2044 98.2146 53.8526C98.5752 53.5007 98.7778 53.0236 98.7778 52.5261C98.7778 52.0285 98.5752 51.5514 98.2146 51.1996C97.854 50.8478 97.3648 50.6502 96.8548 50.6502Z" fill="#D67513"/>
<path d="M41.8563 60.0295H19.9338C19.4238 60.0295 18.9347 60.2272 18.574 60.579C18.2134 60.9308 18.0108 61.408 18.0108 61.9055C18.0108 62.403 18.2134 62.8802 18.574 63.232C18.9347 63.5838 19.4238 63.7814 19.9338 63.7814H41.8563C44.7436 63.7782 47.5669 64.612 49.9676 66.177C50.1777 66.3137 50.4133 66.4087 50.6611 66.4566C50.9088 66.5045 51.1638 66.5043 51.4115 66.4561C51.6592 66.4078 51.8947 66.3124 52.1046 66.1754C52.3145 66.0384 52.4946 65.8623 52.6348 65.6574C52.775 65.4524 52.8724 65.2225 52.9214 64.9808C52.9705 64.7391 52.9703 64.4904 52.9209 64.2488C52.8714 64.0072 52.7736 63.7774 52.6332 63.5727C52.4927 63.3679 52.3122 63.1922 52.1021 63.0554C49.0692 61.0796 45.5033 60.0265 41.8563 60.0295Z" fill="#D67513"/>
<path d="M96.8548 60.0295H74.9323C71.2853 60.0267 67.7195 61.0798 64.6864 63.0554C64.4763 63.1922 64.2959 63.3679 64.1554 63.5727C64.0149 63.7774 63.9171 64.0072 63.8677 64.2488C63.8182 64.4904 63.818 64.7391 63.8671 64.9808C63.9162 65.2225 64.0136 65.4524 64.1538 65.6574C64.2939 65.8623 64.4741 66.0384 64.684 66.1754C64.8939 66.3124 65.1294 66.4078 65.377 66.4561C65.6247 66.5043 65.8797 66.5045 66.1275 66.4566C66.3752 66.4087 66.6109 66.3137 66.821 66.177C69.2219 64.6125 72.045 63.7788 74.9323 63.7814H96.8548C97.3648 63.7814 97.854 63.5838 98.2146 63.232C98.5752 62.8802 98.7778 62.403 98.7778 61.9055C98.7778 61.408 98.5752 60.9308 98.2146 60.579C97.854 60.2272 97.3648 60.0295 96.8548 60.0295Z" fill="#D67513"/>
</svg>
