<svg width="16" height="15" viewBox="0 0 16 15" fill="none" xmlns="http://www.w3.org/2000/svg">
<path d="M11.0863 10.4344C11.6768 10.3743 12.1247 9.87362 12.1043 9.27279C12.084 8.67196 11.575 8.1913 10.9641 8.1913H10.9234C10.2922 8.21132 9.80359 8.73204 9.82395 9.3529C9.84431 9.65331 9.96647 9.91367 10.1497 10.0939C9.45745 11.4358 8.3987 12.4171 6.81057 13.2383C5.73145 13.799 4.61162 13.9993 3.49178 13.8591C2.57555 13.7389 1.86292 13.3384 1.41499 12.6775C0.763448 11.6961 0.702367 10.6347 1.2521 9.5732C1.63896 8.81215 2.24978 8.25138 2.63663 7.97099C2.55519 7.71063 2.43302 7.27003 2.37194 6.94958C-0.580356 9.05249 -0.274946 11.8964 0.620924 13.2383C1.29283 14.2396 2.65699 14.8605 4.16368 14.8605C4.57089 14.8605 4.97811 14.8204 5.38532 14.7203C7.99149 14.2196 9.96647 12.6975 11.0863 10.4344ZM14.6698 7.95097C13.1224 6.16851 10.842 5.18715 8.23581 5.18715H7.91004C7.7268 4.82666 7.33995 4.58633 6.91237 4.58633H6.87165C6.24047 4.60635 5.75181 5.12707 5.77217 5.74793C5.79253 6.34876 6.30155 6.82942 6.91237 6.82942H6.95309C7.40103 6.80939 7.78788 6.529 7.95077 6.14848H8.31726C9.86467 6.14848 11.3306 6.58909 12.6541 7.45027C13.6721 8.11119 14.4051 8.97237 14.8123 10.0138C15.1584 10.855 15.1381 11.6761 14.7716 12.3771C14.2015 13.4385 13.2445 14.0193 11.9822 14.0193C11.1678 14.0193 10.394 13.779 9.98683 13.5988C9.76287 13.799 9.35565 14.1195 9.0706 14.3197C9.94611 14.7203 10.842 14.9406 11.6971 14.9406C13.6518 14.9406 15.0974 13.8791 15.6471 12.8177C16.2376 11.6561 16.1968 9.65331 14.6698 7.95097ZM4.32657 10.7749C4.34693 11.3757 4.85594 11.8564 5.46676 11.8564H5.50748C6.13867 11.8363 6.62732 11.3156 6.60696 10.6947C6.5866 10.0939 6.07758 9.61326 5.46676 9.61326H5.42604C5.38532 9.61326 5.32424 9.61326 5.28352 9.63329C4.44873 8.27141 4.1026 6.78936 4.22476 5.18715C4.30621 3.9855 4.71342 2.94406 5.42604 2.08287C6.0165 1.34185 7.1567 0.981353 7.9304 0.961326C10.0886 0.921271 11.0049 3.56492 11.0659 4.62638C11.3306 4.68646 11.7786 4.82666 12.084 4.92679C11.8397 1.68232 9.80359 0 7.84896 0C6.0165 0 4.32657 1.3018 3.65466 3.22445C2.71807 5.78798 3.32889 8.25138 4.46909 10.1941C4.36729 10.3343 4.30621 10.5546 4.32657 10.7749Z" fill="white"/>
</svg>
