<svg width="98" height="103" viewBox="0 0 98 103" fill="none" xmlns="http://www.w3.org/2000/svg">
<path d="M65.9197 70.3832H57.9451C62.1717 66.6129 63.6597 60.5727 61.6799 55.2198C59.7 49.8678 54.6676 46.323 49.0461 46.323C43.4245 46.323 38.3921 49.8678 36.4123 55.2198C34.4324 60.5727 35.9204 66.6129 40.147 70.3832H32.1724C27.5149 70.389 23.7414 74.228 23.7356 78.9665V101.283C23.7356 102.231 24.4911 103 25.423 103C26.3548 103 27.1104 102.231 27.1104 101.283V78.9665C27.1104 76.1224 29.3769 73.8165 32.1724 73.8165H39.9106L47.3587 81.394V101.283C47.3587 102.231 48.1142 103 49.0461 103C49.9779 103 50.7334 102.231 50.7334 101.283V81.394L58.1816 73.8165H65.9197C68.7152 73.8165 70.9818 76.1224 70.9818 78.9665V101.283C70.9818 102.231 71.7373 103 72.6691 103C73.601 103 74.3565 102.231 74.3565 101.283V78.9665C74.3507 74.228 70.5772 70.389 65.9197 70.3832ZM38.9219 60.0832C38.9219 54.395 43.455 49.7832 49.0461 49.7832C54.6371 49.7832 59.1702 54.395 59.1702 60.0832C59.1702 65.7713 54.6371 70.3832 49.0461 70.3832C43.4567 70.3773 38.9277 65.7696 38.9219 60.0832ZM49.0461 78.2557L44.6827 73.8165H53.4095L49.0461 78.2557Z" fill="#D67513"/>
<path d="M35.5471 84.1167C34.6153 84.1167 33.8598 84.8853 33.8598 85.8334V101.283C33.8598 102.231 34.6153 103 35.5471 103C36.479 103 37.2345 102.231 37.2345 101.283V85.8334C37.2345 84.8853 36.479 84.1167 35.5471 84.1167Z" fill="#D67513"/>
<path d="M62.545 84.1167C61.6131 84.1167 60.8576 84.8853 60.8576 85.8334V101.283C60.8576 102.231 61.6131 103 62.545 103C63.4768 103 64.2323 102.231 64.2323 101.283V85.8334C64.2323 84.8853 63.4768 84.1167 62.545 84.1167Z" fill="#D67513"/>
<path d="M89.5428 54.9333H81.5682C85.5633 51.3759 87.132 45.7632 85.5749 40.5998C84.0177 35.4364 79.6254 31.6845 74.3565 31.0182V24.0333H81.106C82.9697 24.0333 84.4807 22.496 84.4807 20.6V3.43333C84.4807 1.53729 82.9697 0 81.106 0H16.9862C15.1225 0 13.6115 1.53729 13.6115 3.43333V6.86666C13.6115 7.81468 14.367 8.58333 15.2988 8.58333C16.2307 8.58333 16.9862 7.81468 16.9862 6.86666V3.43333H81.106V20.6H72.6692C71.7373 20.6 70.9818 21.3686 70.9818 22.3166V27.8749L65.53 21.2161C65.2087 20.8246 64.7333 20.5991 64.2323 20.6H55.7955C55.1282 20.6 54.5242 20.9998 54.2532 21.6201L49.0461 33.5403L43.839 21.6201C43.5679 20.9998 42.964 20.6 42.2966 20.6H35.5472C35.0462 20.5991 34.5708 20.8246 34.2495 21.2161L28.7977 27.8749V22.3166C28.7977 21.3686 28.0422 20.6 27.1104 20.6H16.9862V17.1667C16.9862 16.2186 16.2307 15.45 15.2988 15.45C14.367 15.45 13.6115 16.2186 13.6115 17.1667V20.6C13.6115 22.496 15.1225 24.0333 16.9862 24.0333H25.423V30.9C19.8039 30.8916 14.769 34.4297 12.7884 39.78C10.8077 45.1295 12.2957 51.168 16.524 54.9333H8.54936C3.89181 54.9391 0.118316 58.7782 0.112549 63.5166V89.2666C0.112549 93.0587 3.13464 96.1332 6.862 96.1332C8.05008 96.1265 9.21508 95.7963 10.2367 95.1785V101.283C10.2367 102.231 10.9923 103 11.9241 103C12.8559 103 13.6115 102.231 13.6115 101.283V87.5499H16.9862C17.918 87.5499 18.6735 86.7813 18.6735 85.8333C18.6735 84.8852 17.918 84.1166 16.9862 84.1166H13.6115V70.3833C13.6115 69.4352 12.8559 68.6666 11.9241 68.6666C10.9923 68.6666 10.2367 69.4352 10.2367 70.3833V84.1166H3.48728V63.5166C3.48728 60.6725 5.75385 58.3666 8.54936 58.3666H16.2875L24.23 66.447C24.8924 67.0975 25.9445 67.0882 26.5954 66.426C27.2463 65.7639 27.2554 64.6935 26.616 64.0195L21.0596 58.3666H28.7977C29.7296 58.3666 30.4851 57.598 30.4851 56.6499C30.4851 55.7019 29.7296 54.9333 28.7977 54.9333H25.423C19.832 54.9333 15.2988 50.3214 15.2988 44.6333C15.2988 38.9452 19.832 34.3333 25.423 34.3333C31.014 34.3333 35.5472 38.9452 35.5472 44.6333C35.5472 45.5813 36.3027 46.35 37.2345 46.35C38.1664 46.35 38.9219 45.5813 38.9219 44.6333C38.912 38.8613 35.3585 33.7113 30.0262 31.739L36.339 24.0333H41.2017L47.5037 38.4632C47.7748 39.0843 48.3787 39.4841 49.0461 39.4841C49.7134 39.4841 50.3174 39.0843 50.5884 38.4632L56.8905 24.0333H63.4406L69.4106 31.3224C63.4018 32.8463 59.181 38.3324 59.1703 44.6333C59.1703 45.5813 59.9258 46.35 60.8576 46.35C61.7895 46.35 62.545 45.5813 62.545 44.6333C62.545 38.9452 67.0781 34.3333 72.6692 34.3333C78.2602 34.3333 82.7933 38.9452 82.7933 44.6333C82.7933 50.3214 78.2602 54.9333 72.6692 54.9333H69.2944C68.3626 54.9333 67.6071 55.7019 67.6071 56.6499C67.6071 57.598 68.3626 58.3666 69.2944 58.3666H77.0326L71.4761 64.0195C71.0378 64.4504 70.8615 65.0891 71.0164 65.6893C71.1705 66.2894 71.631 66.758 72.221 66.9147C72.8109 67.0723 73.4387 66.8929 73.8622 66.447L81.8047 58.3666H89.5428C92.3383 58.3666 94.6049 60.6725 94.6049 63.5166V84.1166H87.8554V70.3833C87.8554 69.4352 87.0999 68.6666 86.1681 68.6666C85.2362 68.6666 84.4807 69.4352 84.4807 70.3833V84.1166H81.106C80.1741 84.1166 79.4186 84.8852 79.4186 85.8333C79.4186 86.7813 80.1741 87.5499 81.106 87.5499H84.4807V101.283C84.4807 102.231 85.2362 103 86.1681 103C87.0999 103 87.8554 102.231 87.8554 101.283V95.1785C88.8771 95.7963 90.0421 96.1265 91.2302 96.1332C94.9575 96.1332 97.9796 93.0587 97.9796 89.2666V63.5166C97.9738 58.7782 94.2003 54.9391 89.5428 54.9333ZM10.2367 87.5499V89.2666C10.2367 91.1626 8.72568 92.6999 6.862 92.6999C4.99832 92.6999 3.48728 91.1626 3.48728 89.2666V87.5499H10.2367ZM94.6049 89.2666C94.6049 91.1626 93.0938 92.6999 91.2302 92.6999C89.3665 92.6999 87.8554 91.1626 87.8554 89.2666V87.5499H94.6049V89.2666Z" fill="#D67513"/>
<path d="M23.7356 10.2998H33.8598C34.7917 10.2998 35.5472 9.53114 35.5472 8.58312C35.5472 7.6351 34.7917 6.86646 33.8598 6.86646H23.7356C22.8038 6.86646 22.0483 7.6351 22.0483 8.58312C22.0483 9.53114 22.8038 10.2998 23.7356 10.2998Z" fill="#D67513"/>
<path d="M57.4829 6.86646H43.9839C43.0521 6.86646 42.2966 7.6351 42.2966 8.58312C42.2966 9.53114 43.0521 10.2998 43.9839 10.2998H57.4829C58.4147 10.2998 59.1703 9.53114 59.1703 8.58312C59.1703 7.6351 58.4147 6.86646 57.4829 6.86646Z" fill="#D67513"/>
<path d="M76.0438 10.2998C76.9757 10.2998 77.7312 9.53114 77.7312 8.58312C77.7312 7.6351 76.9757 6.86646 76.0438 6.86646H67.607C66.6752 6.86646 65.9196 7.6351 65.9196 8.58312C65.9196 9.53114 66.6752 10.2998 67.607 10.2998H76.0438Z" fill="#D67513"/>
<path d="M23.7356 17.1665H35.5472C36.479 17.1665 37.2345 16.3978 37.2345 15.4498C37.2345 14.5018 36.479 13.7332 35.5472 13.7332H23.7356C22.8038 13.7332 22.0483 14.5018 22.0483 15.4498C22.0483 16.3978 22.8038 17.1665 23.7356 17.1665Z" fill="#D67513"/>
<path d="M49.0461 15.4498C49.0461 16.3978 49.8016 17.1665 50.7334 17.1665H70.9818C71.9136 17.1665 72.6691 16.3978 72.6691 15.4498C72.6691 14.5018 71.9136 13.7332 70.9818 13.7332H50.7334C49.8016 13.7332 49.0461 14.5018 49.0461 15.4498Z" fill="#D67513"/>
</svg>
