<svg width="20" height="15" viewBox="0 0 20 15" fill="none" xmlns="http://www.w3.org/2000/svg">
<path d="M17.2155 8.60779C16.5162 8.61173 15.9108 8.77966 15.403 9.0297C15.2155 8.65861 15.028 8.33435 14.9967 8.0922C14.9616 7.81095 14.9186 7.63904 14.9616 7.30314C15.0045 6.96716 15.1998 6.4906 15.1998 6.45154C15.1959 6.41638 15.1568 6.24451 14.7545 6.2406C14.3522 6.23669 14.0045 6.31873 13.9655 6.42419C13.9264 6.52966 13.8483 6.77185 13.7975 7.02185C13.7272 7.38904 12.9928 8.68982 12.5748 9.37341C12.4381 9.10779 12.3209 8.87341 12.2975 8.68587C12.2623 8.40466 12.2193 8.23275 12.2623 7.89685C12.3053 7.56087 12.5006 7.08435 12.5006 7.04529C12.4967 7.01013 12.4576 6.83826 12.0553 6.83435C11.653 6.83044 11.3053 6.91248 11.2663 7.01794C11.2272 7.12341 11.1842 7.37341 11.0983 7.6156C11.0162 7.85779 10.0397 10.0297 9.78577 10.5961C9.65686 10.8851 9.54362 11.1156 9.46155 11.2718C9.37952 11.4281 9.45765 11.2836 9.44983 11.2992C9.37952 11.432 9.34046 11.5062 9.34046 11.5062V11.5102C9.28577 11.6078 9.22718 11.7015 9.19979 11.7015C9.18026 11.7015 9.1412 11.4398 9.20761 11.0805C9.35214 10.3265 9.7037 9.15079 9.69983 9.10783C9.69983 9.08829 9.7662 8.88123 9.47323 8.77579C9.18807 8.67033 9.08655 8.84611 9.06307 8.84611C9.03964 8.84611 9.02011 8.90861 9.02011 8.90861C9.02011 8.90861 9.33651 7.58443 8.41464 7.58443C7.83651 7.58443 7.03964 8.21333 6.6451 8.78755C6.3951 8.92427 5.86385 9.21329 5.30135 9.52193C5.08651 9.63912 4.86385 9.76412 4.65292 9.8774L4.60999 9.83044C3.4928 8.63904 1.42639 7.79529 1.51233 6.19373C1.54358 5.61169 1.74671 4.07654 5.48112 2.21716C8.53971 0.693726 10.9889 1.11169 11.4147 2.04138C12.0201 3.36951 10.1061 5.83826 6.92643 6.19373C5.7155 6.33044 5.07874 5.86169 4.91862 5.68591C4.75065 5.50232 4.72721 5.49451 4.66471 5.52966C4.56315 5.58435 4.62565 5.74841 4.66471 5.84607C4.75846 6.09216 5.14909 6.52966 5.81315 6.74841C6.39514 6.93982 7.81706 7.04529 9.53581 6.38123C11.4616 5.63513 12.9655 3.56482 12.5241 1.83435C12.0749 0.0726326 9.153 -0.505493 6.39128 0.474976C4.74671 1.06091 2.96546 1.97498 1.68421 3.17419C0.160768 4.59607 -0.0814194 5.83826 0.0201432 6.35388C0.375651 8.19372 2.91077 9.39294 3.92639 10.2797C3.87561 10.307 3.82874 10.3343 3.78577 10.3578C3.27796 10.6077 1.34436 11.6195 0.859987 12.6898C0.313112 13.9007 0.945925 14.7718 1.3678 14.889C2.67249 15.2523 4.00843 14.6 4.73108 13.5258C5.44979 12.4515 5.36389 11.057 5.03186 10.4203L5.0201 10.3969L5.41854 10.1625C5.67639 10.0101 5.9303 9.86951 6.15292 9.74837C6.02796 10.0882 5.93807 10.4906 5.89124 11.0765C5.83655 11.764 6.1178 12.6546 6.48889 13.0062C6.65296 13.1585 6.84827 13.1624 6.96936 13.1624C7.39905 13.1624 7.59436 12.8069 7.80921 12.3812C8.07483 11.8617 8.30921 11.2601 8.30921 11.2601C8.30921 11.2601 8.01624 12.889 8.81702 12.889C9.10999 12.889 9.40296 12.5101 9.53577 12.3148V12.3187C9.53577 12.3187 9.54358 12.307 9.55921 12.2796C9.5756 12.2554 9.59123 12.2307 9.60608 12.2054V12.1976C9.72327 11.9945 9.98499 11.5297 10.3756 10.7601C10.8795 9.76795 11.3639 8.52576 11.3639 8.52576C11.3639 8.52576 11.4108 8.83044 11.5553 9.33044C11.6412 9.62736 11.8287 9.95154 11.9732 10.2679C11.856 10.432 11.7857 10.5258 11.7857 10.5258L11.7896 10.5297C11.6959 10.6547 11.5904 10.7876 11.4811 10.9203C11.0826 11.3969 10.6061 11.9399 10.5436 12.0961C10.4694 12.2797 10.485 12.4164 10.6295 12.5258C10.735 12.604 10.9225 12.6195 11.1217 12.604C11.4811 12.5805 11.7311 12.4907 11.8561 12.436C12.0514 12.3656 12.2741 12.2602 12.4889 12.1039C12.8795 11.8149 13.1178 11.4047 13.0944 10.8579C13.0826 10.5571 12.985 10.2602 12.8639 9.97896C12.8991 9.92818 12.9342 9.87736 12.9694 9.82271C13.5866 8.92033 14.0631 7.92818 14.0631 7.92818C14.0631 7.92818 14.11 8.23287 14.2545 8.73287C14.3287 8.98677 14.4772 9.26415 14.61 9.53759C14.0319 10.0102 13.6686 10.5571 13.5436 10.9165C13.3131 11.5806 13.4928 11.8813 13.8326 11.9517C13.985 11.9829 14.2037 11.9126 14.3678 11.8423C14.5709 11.7759 14.817 11.6626 15.0436 11.4946C15.4342 11.2056 15.8092 10.8032 15.7897 10.2602C15.778 10.0102 15.7116 9.76415 15.6217 9.52978C16.1139 9.32665 16.7506 9.20947 17.5592 9.30712C19.2975 9.51025 19.6412 10.5962 19.5749 11.0493C19.5085 11.5025 19.1452 11.7524 19.0241 11.8306C18.903 11.9048 18.8639 11.9322 18.8756 11.9868C18.8912 12.0689 18.9459 12.0649 19.0514 12.0494C19.1959 12.0259 19.9655 11.6783 19.9967 10.8424C20.0436 9.76798 19.0241 8.59611 17.2155 8.60779ZM3.80921 13.1273C3.23499 13.7562 2.42639 13.9945 2.08264 13.7914C1.71155 13.5765 1.85604 12.6508 2.56311 11.9828C2.9928 11.5765 3.55139 11.2015 3.91858 10.9711C4.00061 10.9203 4.12561 10.8461 4.27405 10.7562C4.29749 10.7406 4.31311 10.7328 4.31311 10.7328C4.34046 10.7172 4.37171 10.6976 4.40296 10.6781C4.66468 11.6312 4.41468 12.4672 3.80921 13.1273ZM8.00843 10.2719C7.80921 10.7601 7.38733 12.014 7.13343 11.9437C6.91464 11.8851 6.78186 10.9359 7.09042 9.99841C7.24667 9.52572 7.5787 8.96326 7.77401 8.74447C8.09046 8.39291 8.43417 8.27572 8.52014 8.42025C8.62171 8.60779 8.13343 9.96716 8.00843 10.2719ZM11.4733 11.9281C11.3873 11.9711 11.3092 12.0023 11.2741 11.9789C11.2467 11.9633 11.3092 11.9047 11.3092 11.9047C11.3092 11.9047 11.7428 11.4399 11.9146 11.225C12.0123 11.1001 12.1295 10.9555 12.2545 10.7914V10.8383C12.2545 11.4008 11.7155 11.7758 11.4733 11.9281ZM14.1451 11.3187C14.0826 11.2719 14.0905 11.1273 14.3014 10.6742C14.3834 10.4945 14.5709 10.1937 14.8951 9.90857C14.9342 10.0258 14.9576 10.139 14.9537 10.2445C14.9498 10.9476 14.4498 11.2094 14.1451 11.3187Z" fill="#D67513"/>
</svg>
