<svg width="15" height="15" viewBox="0 0 15 15" fill="none" xmlns="http://www.w3.org/2000/svg">
<g clip-path="url(#clip0)">
<path d="M0.94448 0.49656L1.91801 12.9511C1.93262 13.1381 2.05922 13.2976 2.23805 13.3543L7.36079 14.9785C7.45138 15.0072 7.54864 15.0072 7.63923 14.9785L12.762 13.3543C12.9408 13.2976 13.0674 13.1381 13.082 12.9511L14.0555 0.49656C14.0765 0.228793 13.8648 0 13.5963 0H1.40376C1.1352 0 0.923577 0.228793 0.94448 0.49656ZM11.559 4.36079H5.2143L5.40578 6.1265H11.421L11.0275 11.1603L7.50002 12.2786L3.97256 11.1603L3.76698 8.53042H5.61847V9.8204L7.5495 10.3387L9.46899 9.8204L9.6179 7.76454H3.7071L3.31468 2.74397H11.6853L11.559 4.36079Z" fill="#D67513"/>
</g>
<defs>
<clipPath id="clip0">
<rect width="15" height="15" fill="white"/>
</clipPath>
</defs>
</svg>
