<svg width="18" height="18" viewBox="0 0 18 18" fill="none" xmlns="http://www.w3.org/2000/svg">
<path fill-rule="evenodd" clip-rule="evenodd" d="M4.5 7.60012C5.09991 5.20022 6.60009 4.00012 9 4.00012C12.6 4.00012 13.05 6.70012 14.85 7.15012C16.0501 7.45022 17.1 7.00022 18 5.80012C17.4001 8.20003 15.8999 9.40012 13.5 9.40012C9.9 9.40012 9.45 6.70012 7.65 6.25012C6.44991 5.95003 5.4 6.40003 4.5 7.60012ZM0 13.0001C0.599906 10.6002 2.10009 9.40012 4.5 9.40012C8.1 9.40012 8.55 12.1001 10.35 12.5501C11.5501 12.8502 12.6 12.4002 13.5 11.2001C12.9001 13.6 11.3999 14.8001 9 14.8001C5.4 14.8001 4.95 12.1001 3.15 11.6501C1.94991 11.35 0.9 11.8 0 13.0001Z" fill="#D67513"/>
</svg>
