<svg width="15" height="14" viewBox="0 0 15 14" fill="none" xmlns="http://www.w3.org/2000/svg">
<path d="M0 0H15V15H0V0Z" fill="#D67513"/>
<path d="M3.94405 12.5351L5.09196 11.8404C5.31341 12.2331 5.51486 12.5653 5.99808 12.5653C6.46127 12.5653 6.75329 12.3841 6.75329 11.6793V6.88647H8.16291V11.6993C8.16291 13.1593 7.3071 13.8238 6.05851 13.8238C4.93086 13.8238 4.27629 13.2398 3.94403 12.535" fill="white"/>
<path d="M8.92856 12.384L10.0763 11.7194C10.3785 12.2129 10.7712 12.5753 11.4659 12.5753C12.0499 12.5753 12.4224 12.2833 12.4224 11.8805C12.4224 11.3972 12.0398 11.226 11.3954 10.9442L11.0431 10.793C10.026 10.3602 9.35139 9.81645 9.35139 8.66857C9.35139 7.61133 10.1569 6.80579 11.4156 6.80579C12.3117 6.80579 12.9561 7.11795 13.4192 7.93355L12.3217 8.63833C12.08 8.2054 11.8183 8.03426 11.4156 8.03426C11.0027 8.03426 10.7409 8.29605 10.7409 8.63833C10.7409 9.06124 11.0027 9.23245 11.6068 9.49426L11.9592 9.64528C13.1574 10.1588 13.8321 10.6824 13.8321 11.8604C13.8321 13.1291 12.8352 13.8238 11.4961 13.8238C10.1872 13.8238 9.34134 13.1996 8.92858 12.384" fill="white"/>
</svg>
