<svg width="15" height="15" viewBox="0 0 15 15" fill="none" xmlns="http://www.w3.org/2000/svg">
<path d="M7.471 0C3.34541 0 0 3.43835 0 7.67989C0 11.0731 2.14066 13.9519 5.10914 14.9674C5.4825 15.0384 5.61961 14.8008 5.61961 14.5979C5.61961 14.4148 5.61264 13.8098 5.60947 13.1681C3.53098 13.6326 3.0924 12.2619 3.0924 12.2619C2.75256 11.3742 2.26289 11.1382 2.26289 11.1382C1.58508 10.6616 2.31398 10.6713 2.31398 10.6713C3.06422 10.7255 3.45926 11.4628 3.45926 11.4628C4.12559 12.6369 5.20699 12.2974 5.63332 12.1012C5.70035 11.6048 5.894 11.266 6.10764 11.0743C4.44826 10.88 2.70381 10.2215 2.70381 7.2788C2.70381 6.44037 2.99566 5.75523 3.47361 5.21742C3.39604 5.02396 3.14033 4.24287 3.54598 3.18501C3.54598 3.18501 4.17334 2.9786 5.60104 3.97224C6.19693 3.80203 6.83607 3.71674 7.471 3.71385C8.10592 3.71674 8.74553 3.80203 9.3426 3.97224C10.7686 2.9786 11.3951 3.18501 11.3951 3.18501C11.8017 4.24287 11.5459 5.02396 11.4683 5.21742C11.9473 5.75523 12.2372 6.44031 12.2372 7.2788C12.2372 10.2285 10.4895 10.878 8.82586 11.0681C9.09381 11.3065 9.33258 11.7739 9.33258 12.4903C9.33258 13.5179 9.32391 14.3449 9.32391 14.5979C9.32391 14.8023 9.45838 15.0418 9.83713 14.9663C12.804 13.9497 14.9419 11.072 14.9419 7.67989C14.9419 3.43835 11.597 0 7.471 0Z" fill="#D67513"/>
<path d="M2.79815 10.9403C2.78175 10.9784 2.72327 10.9899 2.67013 10.9637C2.61593 10.9387 2.58546 10.8866 2.60304 10.8483C2.61915 10.809 2.67763 10.7981 2.73171 10.8245C2.78602 10.8495 2.81696 10.902 2.79815 10.9403ZM3.16565 11.2773C3.13003 11.3113 3.06036 11.2955 3.01307 11.2419C2.96421 11.1883 2.95507 11.1168 2.99122 11.0823C3.02796 11.0483 3.09552 11.0642 3.1445 11.1178C3.19337 11.1719 3.20286 11.2431 3.16559 11.2774L3.16565 11.2773ZM3.41778 11.7086C3.37196 11.7413 3.29708 11.7107 3.25085 11.6424C3.20509 11.5741 3.20509 11.4922 3.25184 11.4594C3.29825 11.4265 3.37196 11.4561 3.41884 11.5238C3.46454 11.5933 3.46454 11.6752 3.41772 11.7087L3.41778 11.7086ZM3.84411 12.2081C3.80315 12.2545 3.71596 12.2421 3.6521 12.1787C3.58682 12.1168 3.5686 12.0289 3.60967 11.9825C3.6511 11.936 3.73881 11.9491 3.80315 12.0119C3.86801 12.0737 3.88782 12.1622 3.84417 12.2081H3.84411ZM4.39512 12.3768C4.37713 12.4369 4.29311 12.4642 4.2085 12.4387C4.12401 12.4124 4.0687 12.3419 4.08575 12.2811C4.10333 12.2206 4.1877 12.1921 4.27295 12.2194C4.35733 12.2456 4.41276 12.3156 4.39518 12.3768H4.39512ZM5.02231 12.4483C5.02442 12.5116 4.95264 12.5641 4.86381 12.5653C4.77446 12.5673 4.70221 12.516 4.70127 12.4537C4.70127 12.3898 4.77141 12.3377 4.86071 12.3362C4.94953 12.3344 5.02231 12.3853 5.02231 12.4483ZM5.63836 12.424C5.64902 12.4858 5.58727 12.5493 5.49908 12.5661C5.41237 12.5824 5.33209 12.5443 5.32102 12.483C5.31024 12.4196 5.37317 12.3562 5.45971 12.3398C5.54807 12.324 5.62711 12.3612 5.63836 12.424Z" fill="#D67513"/>
</svg>
