<svg width="16" height="15" viewBox="0 0 16 15" fill="none" xmlns="http://www.w3.org/2000/svg">
<path d="M0.0471191 7.48358C0.0471191 8.73669 1.21977 9.90652 3.06856 10.5659C2.69938 12.5053 3.0024 14.0685 4.01452 14.6776C5.05488 15.3036 6.60476 14.8703 8.0758 13.5285C9.50973 14.8161 10.959 15.3228 11.9702 14.712C13.0095 14.0841 13.3256 12.415 12.9462 10.415C14.8719 9.75069 15.949 8.75318 15.949 7.48358C15.949 6.25952 14.7742 5.20055 12.9503 4.54538C13.3587 2.46278 13.0127 0.937554 11.9586 0.303303C10.9425 -0.308155 9.47639 0.224793 8.02137 1.54612C6.50767 0.143636 5.05607 -0.28456 4.00307 0.35154C2.98788 0.964736 2.69818 2.5563 3.06856 4.53162C1.2822 5.18153 0.0471191 6.26442 0.0471191 7.48358Z" fill="white"/>
<path d="M12.564 5.19609C12.4175 5.14347 12.2657 5.09369 12.1094 5.0466C12.1351 4.9372 12.1586 4.82921 12.1796 4.72305C12.5237 2.97996 12.2987 1.57572 11.5304 1.11338C10.7937 0.670061 9.58882 1.13229 8.37196 2.23733C8.25495 2.34359 8.1376 2.45609 8.02031 2.57399C7.94216 2.49599 7.86413 2.4206 7.78631 2.34849C6.51101 1.16692 5.23272 0.668986 4.46515 1.13266C3.72912 1.57727 3.51115 2.89739 3.82092 4.54933C3.85084 4.70889 3.8858 4.87183 3.92534 5.0375C3.74443 5.09109 3.56977 5.14822 3.40266 5.209C1.90751 5.75294 0.952637 6.60542 0.952637 7.48968C0.952637 8.40294 1.97769 9.31896 3.53501 9.87439C3.65791 9.91822 3.78543 9.95966 3.91685 9.99901C3.87419 10.1782 3.83709 10.3538 3.80594 10.525C3.51058 12.1483 3.74124 13.4372 4.4753 13.879C5.23352 14.3353 6.50603 13.8663 7.74513 12.7361C7.84307 12.6468 7.94136 12.552 8.03982 12.4527C8.16744 12.5809 8.29486 12.7023 8.42161 12.8162C9.62182 13.8939 10.8072 14.3291 11.5406 13.886C12.2981 13.4285 12.5443 12.0439 12.2247 10.3592C12.2002 10.2306 12.1718 10.0991 12.1399 9.96535C12.2293 9.93779 12.317 9.90933 12.4026 9.87974C14.0216 9.32001 15.0749 8.41514 15.0749 7.48968C15.0749 6.60222 14.0893 5.74399 12.564 5.19609Z" fill="#D67513"/>
<path d="M12.213 9.28227C12.1357 9.30894 12.0565 9.33473 11.9758 9.35972C11.797 8.7693 11.5558 8.14148 11.2606 7.49283C11.5423 6.85963 11.7742 6.23983 11.9479 5.65324C12.0924 5.69686 12.2326 5.74287 12.3677 5.79142C13.6746 6.26087 14.4717 6.95495 14.4717 7.48976C14.4717 8.05943 13.6108 8.79895 12.213 9.28227ZM11.6329 10.4816C11.7743 11.2265 11.7944 11.9 11.7008 12.4265C11.6167 12.8996 11.4476 13.215 11.2384 13.3413C10.7934 13.6101 9.84162 13.2607 8.81518 12.339C8.69751 12.2334 8.57899 12.1206 8.46009 12.0012C8.85801 11.547 9.25571 11.0191 9.64386 10.4328C10.3266 10.3695 10.9716 10.2662 11.5565 10.1251C11.5853 10.2464 11.6109 10.3653 11.6329 10.4816ZM5.76736 13.2949C5.33253 13.4551 4.98621 13.4597 4.77687 13.3337C4.33141 13.0656 4.14622 12.0307 4.39883 10.6425C4.42776 10.4835 4.4622 10.3202 4.50189 10.1533C5.0804 10.2868 5.72068 10.3828 6.40502 10.4407C6.79578 11.0145 7.20497 11.5418 7.61733 12.0036C7.52724 12.0943 7.43749 12.1808 7.34826 12.2622C6.80033 12.7619 6.25126 13.1165 5.76736 13.2949ZM3.73025 9.27878C3.04163 9.03318 2.47294 8.71398 2.08314 8.36567C1.73287 8.05266 1.55603 7.74191 1.55603 7.48976C1.55603 6.95316 2.3227 6.26873 3.60137 5.80354C3.75651 5.74709 3.91893 5.6939 4.08747 5.64393C4.26419 6.24376 4.49601 6.87091 4.77576 7.50508C4.49239 8.14867 4.25728 8.7858 4.07883 9.39267C3.95867 9.35663 3.84226 9.3187 3.73025 9.27878ZM4.41311 4.42851C4.1477 3.01317 4.32397 1.94549 4.76752 1.67758C5.23998 1.39216 6.28472 1.7991 7.38584 2.81933C7.45622 2.88454 7.52688 2.95279 7.59775 3.0234C7.18743 3.48314 6.78198 4.00655 6.39469 4.5769C5.73051 4.64114 5.09473 4.74433 4.51019 4.88251C4.47343 4.72825 4.44088 4.57669 4.41311 4.42851ZM10.5048 5.99812C10.3651 5.74625 10.2216 5.50034 10.0754 5.26115C10.526 5.32058 10.9577 5.39949 11.3631 5.49604C11.2414 5.90308 11.0897 6.32867 10.9111 6.76496C10.783 6.51118 10.6475 6.2553 10.5048 5.99812ZM8.02063 3.47331C8.2989 3.78789 8.57758 4.13911 8.85168 4.52019C8.57547 4.50658 8.29584 4.49949 8.0139 4.49949C7.73462 4.49949 7.45705 4.50642 7.18255 4.5198C7.45693 4.14226 7.73801 3.79151 8.02063 3.47331ZM5.52054 6.00247C5.38095 6.25504 5.24797 6.50953 5.12188 6.76449C4.9462 6.32972 4.7959 5.90219 4.67313 5.48938C5.07606 5.39529 5.50573 5.31835 5.95345 5.26004C5.80514 5.50144 5.6605 5.74922 5.52054 6.00247ZM5.96635 9.76438C5.50377 9.71053 5.06763 9.63756 4.66481 9.54607C4.78954 9.12588 4.94315 8.68922 5.12256 8.24509C5.24898 8.49987 5.38248 8.75446 5.52292 9.00758C5.66598 9.26545 5.81422 9.51805 5.96635 9.76438ZM8.03732 11.5506C7.75139 11.2287 7.46618 10.8726 7.18763 10.4895C7.45803 10.5006 7.73371 10.5063 8.0139 10.5063C8.30175 10.5063 8.5863 10.4995 8.86638 10.4865C8.59138 10.8764 8.31371 11.2331 8.03732 11.5506ZM10.9168 8.22245C11.1056 8.67139 11.2647 9.10576 11.3911 9.51879C10.9816 9.61626 10.5395 9.69477 10.0737 9.7531C10.2203 9.51068 10.365 9.26055 10.5072 9.00325C10.6511 8.74294 10.7877 8.48224 10.9168 8.22245ZM9.98465 8.68875C9.76389 9.08816 9.53725 9.46945 9.30717 9.82935C8.8881 9.86062 8.45516 9.87673 8.0139 9.87673C7.57442 9.87673 7.14693 9.86248 6.73528 9.8346C6.49592 9.46997 6.26435 9.08756 6.045 8.69219C5.82623 8.29789 5.62493 7.90027 5.44248 7.50487C5.62488 7.10855 5.82571 6.71048 6.04322 6.31689C6.26131 5.92226 6.49079 5.54179 6.72794 5.17944C7.14794 5.14631 7.57862 5.12902 8.01387 5.12902C8.45109 5.12902 8.88235 5.14644 9.30222 5.17986C9.53574 5.53956 9.76372 5.91887 9.98266 6.31356C10.2041 6.71268 10.4075 7.10811 10.5915 7.49592C10.4081 7.8904 10.2051 8.28981 9.98465 8.68875ZM11.2292 1.65885C11.7021 1.94342 11.886 3.09111 11.5889 4.59607C11.5699 4.6921 11.5486 4.78992 11.5254 4.88904C10.9395 4.74797 10.3033 4.643 9.63715 4.57779C9.2491 4.00117 8.84698 3.47695 8.44335 3.02312C8.55186 2.91418 8.66023 2.81031 8.76815 2.71229C9.81075 1.7655 10.7852 1.39169 11.2292 1.65885Z" fill="white"/>
<path d="M8.01388 6.17383C8.71033 6.17383 9.27495 6.76296 9.27495 7.48973C9.27495 8.21647 8.71033 8.80563 8.01388 8.80563C7.31742 8.80563 6.75281 8.21647 6.75281 7.48973C6.75281 6.76296 7.31742 6.17383 8.01388 6.17383Z" fill="#D67513"/>
</svg>
