<svg width="33" height="20" viewBox="0 0 33 20" fill="none" xmlns="http://www.w3.org/2000/svg">
<path d="M16.3138 19.9425C16.2021 19.9425 16.0978 19.913 16.0009 19.8614L15.0101 19.2799C14.8612 19.1989 14.9357 19.1695 14.9804 19.1547C15.1815 19.0885 15.2188 19.0738 15.4274 18.9559C15.4497 18.9413 15.4795 18.9486 15.5018 18.9634L16.2616 19.4123C16.2914 19.4271 16.3287 19.4271 16.351 19.4123L19.3232 17.7119C19.3531 17.6971 19.368 17.6677 19.368 17.6309V14.2373C19.368 14.2005 19.3531 14.171 19.3232 14.1563L16.351 12.4631C16.3213 12.4484 16.2841 12.4484 16.2616 12.4631L13.2894 14.1563C13.2597 14.171 13.2448 14.2078 13.2448 14.2373V17.6309C13.2448 17.6603 13.2597 17.6971 13.2894 17.7119L14.1014 18.1757C14.5409 18.3965 14.8165 18.1389 14.8165 17.8813V14.5317C14.8165 14.4875 14.8537 14.4434 14.9058 14.4434H15.2857C15.3305 14.4434 15.3752 14.4802 15.3752 14.5317V17.8813C15.3752 18.4627 15.0549 18.8014 14.4962 18.8014C14.3249 18.8014 14.1908 18.8014 13.8109 18.6174L13.0287 18.1757C12.835 18.0653 12.7158 17.8591 12.7158 17.6383V14.2446C12.7158 14.0238 12.835 13.8177 13.0287 13.7073L16.0009 12.0067C16.1872 11.9037 16.4405 11.9037 16.6266 12.0067L19.5988 13.7073C19.7926 13.8177 19.9118 14.0238 19.9118 14.2446V17.6383C19.9118 17.8591 19.7926 18.0653 19.5988 18.1757L16.6266 19.8762C16.5298 19.9203 16.418 19.9425 16.3138 19.9425ZM17.2301 17.6089C15.9265 17.6089 15.6582 17.0199 15.6582 16.5193C15.6582 16.4751 15.6955 16.431 15.7476 16.431H16.135C16.1796 16.431 16.217 16.4605 16.217 16.5046C16.2765 16.8947 16.4479 17.0862 17.2375 17.0862C17.8632 17.0862 18.1314 16.9463 18.1314 16.615C18.1314 16.4237 18.0569 16.2838 17.0811 16.1881C16.2691 16.1071 15.7625 15.9305 15.7625 15.2899C15.7625 14.6937 16.2691 14.3403 17.1183 14.3403C18.0719 14.3403 18.5411 14.6642 18.6007 15.3709C18.6007 15.393 18.5933 15.4151 18.5783 15.4371C18.5634 15.4519 18.5411 15.4666 18.5188 15.4666H18.1314C18.0942 15.4666 18.057 15.4371 18.0494 15.4003C17.9601 14.9955 17.7292 14.863 17.1183 14.863C16.433 14.863 16.351 15.0986 16.351 15.2753C16.351 15.4887 16.4479 15.555 17.3716 15.6727C18.2878 15.7906 18.7199 15.9598 18.7199 16.593C18.7125 17.2407 18.1761 17.6089 17.2301 17.6089Z" fill="#D67513"/>
<path d="M7.09211 6.66944C7.09211 6.53694 7.01761 6.41179 6.89842 6.34554L3.73995 4.54934C3.68781 4.51988 3.62821 4.50516 3.56863 4.4978H3.53882C3.47923 4.4978 3.41964 4.51988 3.36749 4.54934L0.209029 6.34554C0.0898424 6.41179 0.0153503 6.53694 0.0153503 6.66944L0.0227995 11.4986C0.0227995 11.5648 0.0600456 11.6311 0.119639 11.6605C0.179233 11.6973 0.253725 11.6973 0.30587 11.6605L2.18307 10.6005C2.30226 10.5342 2.37675 10.4091 2.37675 10.2766V8.0166C2.37675 7.8841 2.45124 7.75895 2.57043 7.6927L3.36749 7.23628C3.42709 7.19947 3.49413 7.18475 3.56117 7.18475C3.62821 7.18475 3.69526 7.19947 3.74741 7.23628L4.54447 7.6927C4.66366 7.75895 4.73815 7.8841 4.73815 8.0166V10.2766C4.73815 10.4091 4.81264 10.5342 4.93183 10.6005L6.80903 11.6605C6.86863 11.6973 6.94312 11.6973 7.00272 11.6605C7.0623 11.6311 7.09955 11.5648 7.09955 11.4986L7.09211 6.66944Z" fill="#D67513"/>
<path d="M22.2731 0.0220845C22.2135 -0.00736151 22.139 -0.00736151 22.0869 0.0220845C22.0274 0.058892 21.99 0.117784 21.99 0.184037V4.96901C21.99 5.01319 21.9677 5.05736 21.9231 5.0868C21.8783 5.10888 21.8336 5.10888 21.789 5.0868L20.9993 4.63775C20.8801 4.57149 20.7386 4.57149 20.6194 4.63775L17.4609 6.44132C17.3418 6.50757 17.2673 6.63272 17.2673 6.76523V10.365C17.2673 10.4975 17.3418 10.6227 17.4609 10.6889L20.6194 12.4925C20.7386 12.5587 20.8801 12.5587 20.9993 12.4925L24.1578 10.6889C24.277 10.6227 24.3515 10.4975 24.3515 10.365V1.39132C24.3515 1.25146 24.277 1.12631 24.1578 1.06006L22.2731 0.0220845ZM21.9826 9.1798C21.9826 9.2166 21.9677 9.24605 21.9379 9.26077L20.8578 9.87913C20.828 9.89387 20.7908 9.89387 20.7609 9.87913L19.6808 9.26077C19.651 9.24605 19.6362 9.20924 19.6362 9.1798V7.94307C19.6362 7.90625 19.651 7.87681 19.6808 7.86209L20.7609 7.24372C20.7908 7.229 20.828 7.229 20.8578 7.24372L21.9379 7.86209C21.9677 7.87681 21.9826 7.91361 21.9826 7.94307V9.1798Z" fill="#D67513"/>
<path d="M32.7841 7.91367C32.9031 7.84742 32.9702 7.72227 32.9702 7.58977V6.71374C32.9702 6.58123 32.8957 6.45609 32.7841 6.38983L29.6479 4.59364C29.5287 4.52738 29.3872 4.52738 29.268 4.59364L26.1095 6.3972C25.9903 6.46345 25.9158 6.5886 25.9158 6.7211V10.3209C25.9158 10.4534 25.9903 10.5785 26.1095 10.6448L29.2457 12.4116C29.3649 12.4778 29.5064 12.4778 29.618 12.4116L31.5176 11.3662C31.5772 11.3368 31.6144 11.2705 31.6144 11.2043C31.6144 11.138 31.5772 11.0718 31.5176 11.0423L28.3442 9.23874C28.2847 9.20193 28.2475 9.14305 28.2475 9.07678V7.95048C28.2475 7.88422 28.2847 7.81797 28.3442 7.78853L29.335 7.22905C29.3946 7.19225 29.4691 7.19225 29.5287 7.22905L30.5195 7.78853C30.579 7.82533 30.6162 7.88422 30.6162 7.95048V8.83386C30.6162 8.90012 30.6536 8.96637 30.7131 8.99581C30.7726 9.03262 30.8472 9.03262 30.9068 8.99581L32.7841 7.91367Z" fill="#D67513"/>
<path d="M29.4095 7.74444C29.4319 7.72972 29.4616 7.72972 29.484 7.74444L30.0874 8.09043C30.1097 8.10516 30.1246 8.12724 30.1246 8.15668V8.84866C30.1246 8.8781 30.1097 8.9002 30.0874 8.91492L29.484 9.26091C29.4616 9.27564 29.4319 9.27564 29.4095 9.26091L28.8061 8.91492C28.7838 8.9002 28.7689 8.8781 28.7689 8.84866V8.15668C28.7689 8.12724 28.7838 8.10516 28.8061 8.09043L29.4095 7.74444Z" fill="#D67513"/>
<mask id="mask0" mask-type="alpha" maskUnits="userSpaceOnUse" x="8" y="4" width="8" height="9">
<path d="M12.3731 4.60828C12.2539 4.54203 12.1124 4.54203 11.9932 4.60828L8.85709 6.39714C8.73791 6.46339 8.67087 6.58854 8.67087 6.72104V10.3061C8.67087 10.4386 8.74536 10.5637 8.85709 10.63L11.9932 12.4188C12.1124 12.4851 12.2539 12.4851 12.3731 12.4188L15.5092 10.63C15.6284 10.5637 15.6954 10.4386 15.6954 10.3061V6.72104C15.6954 6.58854 15.621 6.46339 15.5092 6.39714L12.3731 4.60828Z" fill="white"/>
</mask>
<g mask="url(#mask0)">
<path d="M12.3731 4.60804C12.2539 4.54179 12.1124 4.54179 11.9932 4.60804L8.85709 6.39689C8.73791 6.46315 8.67087 6.58829 8.67087 6.7208V10.3059C8.67087 10.4384 8.74536 10.5635 8.85709 10.6298L11.9932 12.4186C12.1124 12.4849 12.2539 12.4849 12.3731 12.4186L15.5092 10.6298C15.6284 10.5635 15.6954 10.4384 15.6954 10.3059V6.7208C15.6954 6.58829 15.621 6.46315 15.5092 6.39689L12.3731 4.60804Z" fill="#D67513"/>
<path d="M15.5167 6.39743L12.3657 4.60859C12.3358 4.59386 12.2986 4.57914 12.2688 4.57178L8.73788 10.5493C8.76768 10.5861 8.80493 10.6156 8.84218 10.6377L11.9932 12.4265C12.0826 12.478 12.1869 12.4927 12.2837 12.4633L15.5985 6.47104C15.5762 6.4416 15.5464 6.41951 15.5167 6.39743Z" fill="#D67513"/>
<path fill-rule="evenodd" clip-rule="evenodd" d="M15.5241 10.63C15.6135 10.5784 15.6805 10.4901 15.7104 10.3944L12.2539 4.56407C12.1645 4.54935 12.0677 4.55671 11.9858 4.60824L8.85709 6.38972L12.2316 12.4703C12.2763 12.463 12.3284 12.4482 12.3731 12.4262L15.5241 10.63Z" fill="#D67513"/>
<path fill-rule="evenodd" clip-rule="evenodd" d="M15.5241 10.6301L12.3806 12.419C12.3359 12.4411 12.2912 12.4558 12.239 12.4632L12.2986 12.5736L15.7848 10.5786V10.5344L15.6954 10.3872C15.6805 10.4903 15.6135 10.5786 15.5241 10.6301Z" fill="#D67513"/>
<path fill-rule="evenodd" clip-rule="evenodd" d="M15.5241 10.6301L12.3806 12.419C12.3359 12.4411 12.2912 12.4558 12.239 12.4632L12.2986 12.5736L15.7848 10.5786V10.5344L15.6954 10.3872C15.6805 10.4903 15.6135 10.5786 15.5241 10.6301Z" fill="#D67513"/>
</g>
</svg>
