<svg width="15" height="15" viewBox="0 0 15 15" fill="none" xmlns="http://www.w3.org/2000/svg">
<path d="M0 7.5V0H15V15H0" fill="#D67513"/>
<path d="M3.28876 7.52643V8.13768H5.23876V13.6877H6.62251V8.13768H8.57251V7.53768C8.57251 7.20018 8.57251 6.92643 8.55751 6.91893C8.55751 6.90768 7.36876 6.90393 5.92501 6.90393L3.30001 6.91518V7.53018L3.28876 7.52643ZM12.0525 6.90018C12.435 6.99018 12.7275 7.16268 12.99 7.43643C13.1288 7.58643 13.335 7.84893 13.35 7.91643C13.35 7.93893 12.7013 8.37768 12.3075 8.62143C12.2925 8.63268 12.2325 8.56893 12.1725 8.47143C11.9775 8.19393 11.7788 8.07393 11.4675 8.05143C11.0175 8.02143 10.7175 8.25768 10.7175 8.65143C10.7175 8.77143 10.74 8.83893 10.785 8.93643C10.8863 9.14268 11.0738 9.26643 11.655 9.52143C12.7275 9.98268 13.1925 10.2864 13.4738 10.7214C13.7925 11.2089 13.8638 11.9739 13.65 12.5477C13.41 13.1739 12.825 13.5977 11.9888 13.7364C11.7263 13.7814 11.1263 13.7739 10.845 13.7252C10.245 13.6127 9.67126 13.3127 9.31876 12.9264C9.18001 12.7764 8.91376 12.3752 8.92876 12.3489L9.07126 12.2589L9.63376 11.9327L10.0575 11.6852L10.155 11.8164C10.2788 12.0114 10.5563 12.2739 10.7175 12.3639C11.205 12.6152 11.8575 12.5814 12.18 12.2889C12.3188 12.1614 12.3788 12.0264 12.3788 11.8389C12.3788 11.6664 12.3525 11.5877 12.2663 11.4564C12.1463 11.2914 11.9063 11.1564 11.2313 10.8564C10.455 10.5264 10.125 10.3164 9.81751 9.99393C9.64126 9.79893 9.48001 9.49518 9.40501 9.24393C9.34876 9.02643 9.33001 8.49393 9.38251 8.28018C9.54376 7.53018 10.11 7.00518 10.92 6.85518C11.1825 6.80268 11.8013 6.82518 12.06 6.89268L12.0525 6.90018Z" fill="white"/>
</svg>
