<svg width="16" height="16" viewBox="0 0 16 16" fill="none" xmlns="http://www.w3.org/2000/svg">
<path d="M13.9289 1.54572H15.5085V14.0838H13.9289V1.54572ZM10.7836 1.99952L10.5649 2.06746C10.2911 2.154 9.96926 2.03349 9.85856 1.80414C9.80549 1.6931 9.80295 1.5704 9.85163 1.45817C9.90808 1.32837 10.0281 1.22679 10.1804 1.1793L12.6464 0.411133L12.9466 2.60848C12.9635 2.72036 12.9321 2.83462 12.8579 2.92926C12.7671 3.04555 12.6213 3.12093 12.4576 3.13648C12.438 3.1385 12.4161 3.13952 12.3949 3.13952C12.1159 3.13952 11.8789 2.96172 11.8438 2.72645L11.8058 2.394C8.95569 6.3403 2.39272 10.5699 2.10794 10.7521C2.01126 10.8139 1.89566 10.8469 1.77329 10.8469C1.60833 10.8469 1.45318 10.786 1.34788 10.6794C1.25104 10.5819 1.20574 10.4575 1.21977 10.3297C1.23447 10.197 1.31408 10.075 1.43847 9.99589C1.50523 9.95296 8.00566 5.75078 10.7836 1.99952ZM12.6522 4.33056V14.0835H11.0729V4.33056H12.6522ZM9.89033 7.22863V14.0838H8.31056V7.22863H9.89033ZM7.03383 10.2393V14.0833H5.4544V10.2393H7.03383ZM4.01407 11.7453V14.0835H2.43481V11.7453H4.01407ZM15.9998 15.5887H0V14.4168H16L15.9998 15.5887Z" fill="#D67513"/>
</svg>
