<svg width="15" height="15" viewBox="0 0 15 15" fill="none" xmlns="http://www.w3.org/2000/svg">
<g clip-path="url(#clip0)">
<path d="M14.7171 6.83191L8.16797 0.28312C7.79103 -0.0940479 7.17932 -0.0940479 6.80191 0.28312L5.44195 1.64308L7.16713 3.36826C7.56803 3.23279 8.02775 3.32367 8.34732 3.64324C8.66842 3.96486 8.75865 4.42851 8.6199 4.8307L10.2825 6.49335C10.6847 6.35478 11.1489 6.44443 11.4701 6.76623C11.9191 7.21505 11.9191 7.9425 11.4701 8.39162C11.021 8.8408 10.2936 8.8408 9.84422 8.39162C9.50648 8.05353 9.42305 7.55753 9.59402 7.14146L8.04351 5.59095L8.04334 9.67125C8.15574 9.72682 8.2584 9.80023 8.34732 9.88863C8.79633 10.3375 8.79633 11.065 8.34732 11.5144C7.8982 11.9634 7.17041 11.9634 6.72193 11.5144C6.27293 11.065 6.27293 10.3375 6.72193 9.88869C6.82953 9.78103 6.95741 9.69578 7.09816 9.63785V5.51953C6.9572 5.46198 6.82926 5.37668 6.72193 5.26869C6.38174 4.92896 6.29994 4.4298 6.47426 4.01208L4.77363 2.31128L0.283008 6.80162C-0.0943359 7.17914 -0.0943359 7.79091 0.283008 8.16814L6.83226 14.717C7.20932 15.0943 7.82092 15.0943 8.19844 14.717L14.717 8.19855C15.0943 7.82121 15.0943 7.20908 14.717 6.83191" fill="#D67513"/>
</g>
<defs>
<clipPath id="clip0">
<rect width="15" height="15" fill="white"/>
</clipPath>
</defs>
</svg>
