<svg width="43" height="43" viewBox="0 0 43 43" fill="none" xmlns="http://www.w3.org/2000/svg">
<g clip-path="url(#clip0)">
<path d="M43 8.16731C41.4009 8.86875 39.6971 9.33369 37.9206 9.55944C39.7481 8.46831 41.1429 6.75369 41.7987 4.687C40.0948 5.70287 38.2136 6.42044 36.2087 6.82088C34.5908 5.09819 32.2849 4.03125 29.7694 4.03125C24.8889 4.03125 20.9598 7.99263 20.9598 12.8489C20.9598 13.5477 21.0189 14.2196 21.1641 14.8592C13.8352 14.5017 7.35031 10.9892 2.99387 5.63838C2.23331 6.95794 1.78719 8.46831 1.78719 10.0943C1.78719 13.1473 3.35938 15.8536 5.70288 17.4204C4.28656 17.3935 2.89713 16.9823 1.72 16.3346C1.72 16.3615 1.72 16.3964 1.72 16.4314C1.72 20.7153 4.77569 24.2735 8.78275 25.0932C8.06519 25.2894 7.28312 25.3834 6.4715 25.3834C5.90712 25.3834 5.33737 25.3512 4.80256 25.2329C5.94475 28.724 9.18588 31.2906 13.0398 31.3739C10.0405 33.7201 6.23231 35.1337 2.10969 35.1337C1.38675 35.1337 0.693375 35.1014 0 35.0127C3.90494 37.5309 8.53281 38.9688 13.5235 38.9688C29.7452 38.9688 38.614 25.5312 38.614 13.8836C38.614 13.4939 38.6006 13.1177 38.5817 12.7441C40.3313 11.5025 41.8014 9.95181 43 8.16731Z" fill="#D67513"/>
</g>
<defs>
<clipPath id="clip0">
<rect width="43" height="43" fill="white"/>
</clipPath>
</defs>
</svg>
