<svg width="43" height="42" viewBox="0 0 43 42" fill="none" xmlns="http://www.w3.org/2000/svg">
<path d="M21.4169 0C9.59017 0 0 9.62737 0 21.5037C0 31.0047 6.13657 39.0652 14.6462 41.9086C15.7165 42.1076 16.1095 41.4421 16.1095 40.8741C16.1095 40.3614 16.0896 38.6673 16.0805 36.8706C10.1221 38.1713 8.86489 34.3334 8.86489 34.3334C7.89067 31.8478 6.48695 31.1871 6.48695 31.1871C4.54389 29.8524 6.63342 29.8797 6.63342 29.8797C8.78409 30.0315 9.91654 32.0957 9.91654 32.0957C11.8267 35.3832 14.9267 34.4327 16.1489 33.8834C16.341 32.4934 16.8961 31.5449 17.5086 31.0079C12.7517 30.4641 7.75092 28.6202 7.75092 20.3807C7.75092 18.033 8.58757 16.1147 9.95769 14.6088C9.7353 14.0671 9.00229 11.88 10.1651 8.91803C10.1651 8.91803 11.9636 8.34007 16.0563 11.1223C17.7645 10.6457 19.5967 10.4069 21.4169 10.3988C23.237 10.4069 25.0705 10.6457 26.7821 11.1223C30.87 8.34007 32.6659 8.91803 32.6659 8.91803C33.8316 11.88 33.0982 14.0671 32.8759 14.6088C34.249 16.1147 35.0799 18.0329 35.0799 20.3807C35.0799 28.6398 30.0698 30.4585 25.3008 30.9907C26.0689 31.6581 26.7534 32.9668 26.7534 34.9729C26.7534 37.8501 26.7285 40.1658 26.7285 40.8741C26.7285 41.4464 27.114 42.1169 28.1998 41.9058C36.7047 39.0591 42.8335 31.0015 42.8335 21.5037C42.8335 9.62737 33.2447 0 21.4169 0Z" fill="#D67513"/>
<path d="M8.02134 30.6325C7.97431 30.7392 7.80668 30.7713 7.65433 30.6981C7.49896 30.6279 7.41162 30.4822 7.46201 30.3749C7.5082 30.265 7.67583 30.2343 7.83087 30.3082C7.98657 30.3781 8.07526 30.5252 8.02134 30.6325ZM9.07484 31.5762C8.97272 31.6714 8.773 31.6272 8.63745 31.4769C8.49737 31.327 8.47116 31.1266 8.5748 31.03C8.68012 30.935 8.87378 30.9794 9.01421 31.1295C9.15429 31.2811 9.1815 31.4803 9.07467 31.5764L9.07484 31.5762ZM9.79761 32.7838C9.66626 32.8753 9.4516 32.7895 9.31907 32.5982C9.18788 32.4072 9.18789 32.1778 9.32192 32.0859C9.45496 31.994 9.66626 32.0766 9.80063 32.2663C9.93165 32.4608 9.93165 32.6902 9.79744 32.7839L9.79761 32.7838ZM11.0197 34.1824C10.9023 34.3122 10.6524 34.2775 10.4693 34.1001C10.2822 33.9267 10.23 33.6806 10.3477 33.5506C10.4665 33.4204 10.7179 33.457 10.9023 33.6329C11.0883 33.806 11.1451 34.0539 11.0199 34.1824H11.0197ZM12.5993 34.6546C12.5478 34.8229 12.3069 34.8995 12.0643 34.828C11.8221 34.7543 11.6636 34.5569 11.7125 34.3868C11.7628 34.2173 12.0047 34.1375 12.2491 34.2141C12.491 34.2874 12.6499 34.4832 12.5995 34.6546H12.5993ZM14.3973 34.8548C14.4033 35.0322 14.1975 35.1793 13.9429 35.1825C13.6868 35.188 13.4796 35.0445 13.477 34.8701C13.477 34.691 13.678 34.5453 13.934 34.5411C14.1886 34.536 14.3973 34.6785 14.3973 34.8548ZM16.1633 34.7868C16.1938 34.9599 16.0168 35.1376 15.764 35.1848C15.5154 35.2304 15.2853 35.1236 15.2536 34.9521C15.2227 34.7747 15.4031 34.5971 15.6511 34.551C15.9044 34.5069 16.131 34.6109 16.1633 34.7868Z" fill="#D67513"/>
</svg>
