<svg width="43" height="43" viewBox="0 0 43 43" fill="none" xmlns="http://www.w3.org/2000/svg">
<path d="M0 3.15383C0 1.46045 1.42337 0.0859375 3.17797 0.0859375H39.822C41.5773 0.0859375 43 1.46045 43 3.15383V39.8465C43 41.5404 41.5773 42.9139 39.822 42.9139H3.17797C1.42354 42.9139 0 41.5406 0 39.8471V3.15333V3.15383Z" fill="#D67513"/>
<path d="M13.0673 35.9273V16.646H6.63275V35.9273H13.068H13.0673ZM9.85137 14.0139C12.0948 14.0139 13.4914 12.5333 13.4914 10.683C13.4494 8.79058 12.0948 7.35132 9.89403 7.35132C7.6918 7.35132 6.25348 8.79058 6.25348 10.6829C6.25348 12.5332 7.64963 14.0138 9.80921 14.0138H9.85087L9.85137 14.0139ZM16.6289 35.9273H23.063V25.1609C23.063 24.5854 23.1049 24.0084 23.2749 23.5974C23.7399 22.4455 24.7986 21.2532 26.5765 21.2532C28.9042 21.2532 29.836 23.0212 29.836 25.6135V35.9273H36.2698V24.872C36.2698 18.9499 33.0959 16.194 28.8626 16.194C25.3918 16.194 23.8675 18.1261 23.0206 19.4421H23.0635V16.6467H16.6292C16.7132 18.4555 16.6287 35.928 16.6287 35.928L16.6289 35.9273Z" fill="white"/>
</svg>
